<svg width="48" height="48" viewBox="0 0 48 48" fill="none" xmlns="http://www.w3.org/2000/svg">
<circle cx="24" cy="24" r="24" fill="#4E6297"/>
<path d="M34.8004 16.5826C34.8004 14.7857 33.2149 13.2002 31.418 13.2002H17.7828C15.9859 13.2002 14.4004 14.7857 14.4004 16.5826V30.2178C14.4004 32.0147 15.9859 33.6002 17.7828 33.6002H24.6532V25.8841H22.1165V22.5018H24.6532V21.1277C24.6532 18.8023 26.3444 16.794 28.4584 16.794H31.2066V20.1764H28.4584C28.1413 20.1764 27.8242 20.4935 27.8242 21.1277V22.5018H31.2066V25.8841H27.8242V33.6002H31.418C33.2149 33.6002 34.8004 32.0147 34.8004 30.2178V16.5826Z" fill="white"/>
</svg>
