<svg width="48" height="48" viewBox="0 0 48 48" fill="none" xmlns="http://www.w3.org/2000/svg">
<circle cx="24" cy="24" r="24" fill="url(#paint0_linear_1702_7691)"/>
<path d="M31.8973 14.4004H17.3035C15.6558 14.4004 14.4004 15.6558 14.4004 17.3035V31.8973C14.4004 33.545 15.6558 34.8004 17.3035 34.8004H31.8973C33.545 34.8004 34.8004 33.545 34.8004 31.8973V17.3035C34.8004 15.6558 33.545 14.4004 31.8973 14.4004ZM24.6004 30.7204C27.9742 30.7204 30.7204 28.0527 30.7204 24.8358C30.7204 24.2865 30.6419 23.6589 30.485 23.1881H32.2112V31.505C32.2112 31.8973 31.8973 32.2896 31.4265 32.2896H17.7742C17.3819 32.2896 16.9896 31.9758 16.9896 31.505V23.1096H18.7942C18.6373 23.6589 18.5589 24.2081 18.5589 24.7573C18.4804 28.0527 21.2265 30.7204 24.6004 30.7204ZM24.6004 28.3665C22.4035 28.3665 20.6773 26.6404 20.6773 24.5219C20.6773 22.4035 22.4035 20.6773 24.6004 20.6773C26.7973 20.6773 28.5235 22.4035 28.5235 24.5219C28.5235 26.7189 26.7973 28.3665 24.6004 28.3665ZM32.1327 19.9712C32.1327 20.4419 31.7404 20.8342 31.2696 20.8342H29.0727C28.6019 20.8342 28.2096 20.4419 28.2096 19.9712V17.8527C28.2096 17.3819 28.6019 16.9896 29.0727 16.9896H31.2696C31.7404 16.9896 32.1327 17.3819 32.1327 17.8527V19.9712Z" fill="white"/>
<defs>
<linearGradient id="paint0_linear_1702_7691" x1="10.2" y1="42.6" x2="42" y2="9.6" gradientUnits="userSpaceOnUse">
<stop stop-color="#EEA054"/>
<stop offset="0.502762" stop-color="#D64763"/>
<stop offset="1" stop-color="#B62A99"/>
</linearGradient>
</defs>
</svg>
