<svg width="48" height="48" viewBox="0 0 48 48" fill="none" xmlns="http://www.w3.org/2000/svg">
<circle cx="24" cy="24" r="24" fill="#F79A38"/>
<path d="M31.4848 27.3512C32.1145 26.7215 32.2044 25.822 31.6647 24.9225C31.2149 24.2028 30.4053 23.843 29.5058 24.0229C29.146 24.1129 28.7862 24.2928 28.4264 24.5627C25.6378 26.4517 21.8598 26.3617 19.0712 24.4727C18.8913 24.3827 18.7114 24.2928 18.5315 24.2028C17.542 23.7531 16.5526 23.933 16.0128 24.8325C15.3832 25.7321 15.4731 26.7215 16.2827 27.5311C16.4626 27.711 16.6425 27.801 16.7325 27.9809L16.8224 28.0708C18.0818 29.0603 19.611 29.69 21.5899 29.9599L20.4205 31.1292C19.4311 32.1187 18.3516 33.1982 17.3621 34.1876C17.0923 34.4575 16.7325 34.9073 16.7325 35.5369C16.7325 36.3465 17.1822 37.1561 17.9918 37.5159C18.2617 37.6958 18.5315 37.6958 18.8014 37.6958C19.2511 37.6958 19.7909 37.5159 20.1507 37.0662C21.5 35.7169 22.5794 34.6374 23.6589 33.558C23.7488 33.468 23.7488 33.468 23.7488 33.468C23.7488 33.468 23.8388 33.468 23.8388 33.558C24.5584 34.3676 25.368 35.0872 26.0876 35.8968C26.4474 36.2566 26.8072 36.6164 27.167 36.9762C27.6168 37.426 27.9766 37.6059 28.5163 37.6059C29.3259 37.6958 30.2254 37.1561 30.5853 36.3465C30.9451 35.6269 30.7652 34.7274 30.1355 34.1876C29.236 33.2881 28.3364 32.2986 27.3469 31.3991L25.8177 29.8699C26.6273 29.7799 27.5268 29.6 28.3364 29.2402C29.6857 28.7905 30.6752 28.1608 31.4848 27.3512Z" fill="white"/>
<path d="M23.7488 24.8325C27.6168 24.8325 30.7652 21.7741 30.7652 17.9061C30.7652 16.0171 30.0455 14.218 28.6962 12.8687C27.3469 11.5194 25.6378 10.7998 23.8388 10.7998C19.9708 10.7998 16.9124 13.9482 16.8224 17.7262C16.8224 19.6152 17.542 21.3243 18.8913 22.6736C20.1507 24.1129 21.8598 24.8325 23.7488 24.8325ZM21.7698 15.8372C22.3096 15.2975 23.0292 15.0276 23.7488 15.0276C25.368 15.0276 26.5374 16.287 26.5374 17.8162C26.5374 19.4353 25.278 20.6047 23.7488 20.6047C22.1296 20.6047 20.9603 19.3454 20.9603 17.8162C20.9603 17.0965 21.2301 16.3769 21.7698 15.8372Z" fill="white"/>
<path d="M31.4848 27.3512C32.1145 26.7215 32.2044 25.822 31.6647 24.9225C31.2149 24.2028 30.4053 23.843 29.5058 24.0229C29.146 24.1129 28.7862 24.2928 28.4264 24.5627C25.6378 26.4517 21.8598 26.3617 19.0712 24.4727C18.8913 24.3827 18.7114 24.2928 18.5315 24.2028C17.542 23.7531 16.5526 23.933 16.0128 24.8325C15.3832 25.7321 15.4731 26.7215 16.2827 27.5311C16.4626 27.711 16.6425 27.801 16.7325 27.9809L16.8224 28.0708C18.0818 29.0603 19.611 29.69 21.5899 29.9599L20.4205 31.1292C19.4311 32.1187 18.3516 33.1982 17.3621 34.1876C17.0923 34.4575 16.7325 34.9073 16.7325 35.5369C16.7325 36.3465 17.1822 37.1561 17.9918 37.5159C18.2617 37.6958 18.5315 37.6958 18.8014 37.6958C19.2511 37.6958 19.7909 37.5159 20.1507 37.0662C21.5 35.7169 22.5794 34.6374 23.6589 33.558C23.7488 33.468 23.7488 33.468 23.7488 33.468C23.7488 33.468 23.8388 33.468 23.8388 33.558C24.5584 34.3676 25.368 35.0872 26.0876 35.8968C26.4474 36.2566 26.8072 36.6164 27.167 36.9762C27.6168 37.426 27.9766 37.6059 28.5163 37.6059C29.3259 37.6958 30.2254 37.1561 30.5853 36.3465C30.9451 35.6269 30.7652 34.7274 30.1355 34.1876C29.236 33.2881 28.3364 32.2986 27.3469 31.3991L25.8177 29.8699C26.6273 29.7799 27.5268 29.6 28.3364 29.2402C29.6857 28.7905 30.6752 28.1608 31.4848 27.3512Z" fill="white"/>
</svg>
