<svg width="48" height="48" viewBox="0 0 48 48" fill="none" xmlns="http://www.w3.org/2000/svg">
<circle cx="24" cy="24" r="24" fill="#2F89CE"/>
<path d="M11.2216 24.4493L16.7393 26.5067L18.8903 33.4272C18.9838 33.8948 19.5449 33.9884 19.919 33.7078L23.0052 31.1828C23.2857 30.9022 23.7534 30.9022 24.1274 31.1828L29.6451 35.2041C30.0192 35.4847 30.5803 35.2976 30.6739 34.83L34.7887 15.1908C34.8823 14.7232 34.4147 14.2556 33.9471 14.4426L11.2216 23.2335C10.6605 23.4206 10.6605 24.2622 11.2216 24.4493ZM18.6097 25.478L29.4581 18.8381C29.6451 18.7445 29.8322 19.0251 29.6451 19.1186L20.7607 27.4419C20.4801 27.7225 20.1996 28.0966 20.1996 28.5642L19.919 30.8087C19.919 31.0892 19.4514 31.1827 19.3579 30.8087L18.2356 26.6938C17.9551 26.2262 18.1421 25.665 18.6097 25.478Z" fill="white"/>
</svg>
