<svg width="48" height="48" viewBox="0 0 48 48" fill="none" xmlns="http://www.w3.org/2000/svg">
<circle cx="24" cy="24" r="24" fill="black"/>
<path d="M28.2579 28.2672V19.952C29.916 21.1443 31.9082 21.7848 33.9495 21.7818V18.6034C32.7449 18.3445 31.6584 17.7008 30.8508 16.7706C29.5436 15.9201 28.641 14.5715 28.3544 13.0391H25.36L25.3539 29.4349C25.2849 31.2708 23.7739 32.745 21.9212 32.745C20.8147 32.7435 19.7772 32.2102 19.1336 31.3122C18.0011 30.7191 17.2916 29.5468 17.29 28.2687C17.2916 26.37 18.8302 24.8314 20.7289 24.8298C21.0829 24.8298 21.4216 24.8881 21.7434 24.9892V21.7818C17.6732 21.8768 14.3906 25.2145 14.3906 29.3077C14.3906 31.2876 15.1599 33.0883 16.4119 34.4353C17.6747 35.3242 19.1826 35.8008 20.7274 35.7992C24.8803 35.7962 28.2579 32.4186 28.2579 28.2672Z" fill="white"/>
<path d="M33.952 18.6035V21.7834C31.8311 21.7834 29.8649 21.1045 28.2604 19.9536V28.2672C28.2604 32.4187 24.8829 35.7978 20.7314 35.7978C19.1269 35.7978 17.6389 35.292 16.416 34.4323C17.8366 35.9648 19.8334 36.8368 21.9237 36.8352C26.0751 36.8352 29.4542 33.4577 29.4542 29.3062V20.9911C31.1123 22.1834 33.103 22.8239 35.1458 22.8209V18.7292C34.7351 18.7292 34.3366 18.6847 33.952 18.6035Z" fill="#FF004F"/>
<path d="M30.8518 16.7706C29.9492 15.7377 29.4511 14.4122 29.4527 13.0391H28.3569C28.6435 14.5715 29.5446 15.9201 30.8518 16.7706ZM20.7299 24.8283C18.8311 24.8298 17.2925 26.3684 17.291 28.2672C17.2925 29.5452 18.0021 30.7176 19.1346 31.3106C18.7116 30.7268 18.4833 30.0249 18.4833 29.3046C18.4848 27.4059 20.0234 25.8673 21.9221 25.8658C22.2761 25.8658 22.6163 25.924 22.9366 26.0252V21.8492C22.601 21.8017 22.2608 21.7772 21.9221 21.7756C21.8624 21.7756 21.8041 21.7787 21.7444 21.7802V24.9877C21.4164 24.8819 21.0747 24.8283 20.7299 24.8283Z" fill="#FF004F"/>
<path d="M21.9219 32.7434C23.7746 32.7434 25.2857 31.2692 25.3546 29.4333L25.3607 13.0375H28.3567C28.2923 12.6957 28.2602 12.3479 28.2602 12H24.1685L24.1608 28.3958C24.0934 30.2317 22.5809 31.7044 20.7281 31.7044C20.1718 31.7044 19.6247 31.5696 19.1328 31.309C19.778 32.2101 20.8155 32.7434 21.9219 32.7434ZM33.9517 18.6034V17.6931C32.8514 17.6946 31.7741 17.3744 30.8531 16.7721C31.6592 17.7008 32.7472 18.3444 33.9517 18.6034Z" fill="#00F2EA"/>
<path d="M21.7442 21.7784V20.8099C21.4086 20.7624 21.0684 20.7379 20.7297 20.7363C16.5783 20.7363 13.1992 24.1154 13.1992 28.2669C13.1992 30.8138 14.4727 33.0681 16.4143 34.432C15.1148 33.042 14.3915 31.2092 14.393 29.3043C14.3915 25.2127 17.674 21.8749 21.7442 21.7784Z" fill="#00F2EA"/>
</svg>
