<svg width="48" height="48" viewBox="0 0 48 48" fill="none" xmlns="http://www.w3.org/2000/svg">
<circle cx="24" cy="24" r="24" fill="#7294C7"/>
<path d="M35.7682 30.1381C35.7682 30.0385 35.6686 30.0385 35.6686 29.9389C35.2701 29.1418 34.3734 28.1456 33.1779 27.0497C32.5801 26.5515 32.2812 26.153 32.082 25.9538C31.7831 25.5552 31.7831 25.2564 31.8827 24.8579C31.9824 24.559 32.3808 24.0608 33.0782 23.1642C33.4768 22.666 33.676 22.3672 33.9749 22.0683C35.4693 20.0757 36.1667 18.7806 35.9674 18.1828L35.8678 18.0832C35.7682 17.9836 35.6686 17.8839 35.4693 17.8839C35.27 17.7843 34.9712 17.7843 34.6723 17.8839H30.8865C30.7868 17.8839 30.7868 17.8839 30.5876 17.8839C30.4879 17.8839 30.3883 17.8839 30.3883 17.8839H30.2887H30.1891L30.0894 17.9836C29.9898 18.0832 29.9898 18.0832 29.9898 18.1828C29.5913 19.2787 29.0931 20.1754 28.595 21.1716C28.2961 21.6698 27.9972 22.1679 27.6984 22.5664C27.3995 22.9649 27.2002 23.2638 27.001 23.4631C26.8017 23.6623 26.6024 23.762 26.5028 23.9612C26.4032 24.0608 26.2039 24.1605 26.2039 24.0608C26.1043 24.0608 26.0047 24.0608 26.0047 23.9612C25.9051 23.8616 25.8054 23.7619 25.7058 23.6623C25.6062 23.5627 25.6062 23.3634 25.5065 23.1642C25.5065 22.9649 25.5065 22.7657 25.5065 22.666C25.5065 22.5664 25.5065 22.2675 25.5065 22.0683C25.5065 21.7694 25.5065 21.5701 25.5065 21.4705C25.5065 21.1716 25.5065 20.7731 25.5065 20.3746C25.5065 19.9761 25.5065 19.6772 25.5065 19.478C25.5065 19.2787 25.5065 18.9798 25.5065 18.7806C25.5065 18.4817 25.5065 18.2824 25.5065 18.1828C25.5065 18.0832 25.4069 17.8839 25.4069 17.7843C25.3073 17.6847 25.2077 17.585 25.108 17.4854C25.0084 17.3858 24.8092 17.3858 24.7095 17.2862C24.2114 17.1865 23.6136 17.0869 22.9163 17.0869C21.3222 17.0869 20.2263 17.1865 19.8278 17.3858C19.6285 17.4854 19.4293 17.585 19.3297 17.7843C19.1304 17.9836 19.1304 18.0832 19.23 18.0832C19.7282 18.1828 20.1267 18.3821 20.3259 18.6809L20.4256 18.8802C20.5252 18.9798 20.5252 19.1791 20.6248 19.478C20.7244 19.7769 20.7244 20.0757 20.7244 20.4742C20.7244 21.072 20.7244 21.6698 20.7244 22.0683C20.7244 22.5664 20.6248 22.8653 20.6248 23.1642C20.6248 23.4631 20.5252 23.6623 20.4256 23.762C20.3259 23.9612 20.3259 24.0608 20.2263 24.0608C20.2263 24.0608 20.2263 24.1605 20.1267 24.1605C20.027 24.1605 19.9274 24.2601 19.7282 24.2601C19.6285 24.2601 19.4293 24.1605 19.3297 24.0608C19.1304 23.9612 18.9311 23.762 18.8315 23.5627C18.6323 23.3634 18.433 23.0646 18.2337 22.666C18.0345 22.2675 17.7356 21.869 17.5363 21.2713L17.3371 20.8728C17.2375 20.6735 17.0382 20.275 16.839 19.7769C16.6397 19.2787 16.4405 18.8802 16.2412 18.3821C16.1416 18.1828 16.042 18.0832 15.9423 17.9836H15.8427C15.8427 17.9836 15.7431 17.8839 15.6434 17.8839C15.5438 17.8839 15.4442 17.7843 15.3446 17.7843H11.758C11.3595 17.7843 11.1602 17.8839 11.0606 17.9836L10.9609 18.0832C10.9609 18.0832 10.9609 18.1828 10.9609 18.2824C10.9609 18.3821 10.9609 18.4817 11.0606 18.6809C11.5587 19.8765 12.1565 21.072 12.7542 22.2675C13.352 23.3634 13.9498 24.3597 14.3483 25.0571C14.8464 25.7545 15.2449 26.4519 15.7431 27.0497C16.2412 27.6474 16.5401 28.0459 16.6397 28.2452C16.839 28.4444 16.9386 28.5441 17.0382 28.6437L17.3371 28.9426C17.5364 29.1418 17.8352 29.4407 18.2337 29.7396C18.6323 30.0385 19.1304 30.3374 19.6285 30.6362C20.1267 30.9351 20.7244 31.1344 21.3222 31.3337C22.0196 31.5329 22.6174 31.6325 23.2151 31.5329H24.7095C25.0084 31.5329 25.2077 31.4333 25.4069 31.234L25.5065 31.1344C25.5065 31.0348 25.6062 31.0348 25.6062 30.9351C25.6062 30.8355 25.6062 30.7359 25.6062 30.5366C25.6062 30.1381 25.6062 29.8392 25.7058 29.5404C25.8054 29.2415 25.8055 29.0422 25.9051 28.843C26.0047 28.6437 26.1043 28.5441 26.2039 28.4444C26.3036 28.3448 26.4032 28.2452 26.4032 28.2452H26.5028C26.7021 28.1456 27.001 28.2452 27.2002 28.4444C27.4991 28.6437 27.798 28.9426 27.9972 29.2415C28.1965 29.5403 28.4954 29.8392 28.8939 30.2377C29.2924 30.6363 29.5913 30.9351 29.7905 31.0348L30.0894 31.234C30.2887 31.3336 30.4879 31.4333 30.7868 31.5329C31.0857 31.6325 31.2849 31.6325 31.4842 31.6325L34.8716 31.5329C35.1704 31.5329 35.4693 31.4333 35.6686 31.3337C35.8678 31.234 35.9674 31.1344 35.9674 30.9351C35.9674 30.8355 35.9674 30.6363 35.9674 30.5366C35.7682 30.3374 35.7682 30.2377 35.7682 30.1381Z" fill="white"/>
</svg>
