<svg width="48" height="48" viewBox="0 0 48 48" fill="none" xmlns="http://www.w3.org/2000/svg">
<circle cx="24" cy="24" r="24" fill="#F40000"/>
<path d="M34.455 22.6956C34.455 22.2301 34.3774 21.6871 34.3774 21.0665C34.2998 20.4459 34.2222 19.8253 34.1447 19.2822C33.9895 18.6616 33.7568 18.1962 33.2913 17.8083C32.9035 17.4204 32.3604 17.1877 31.8174 17.1101C30.0332 16.8774 27.3956 16.7998 23.8271 16.7998C20.2586 16.7998 17.5435 16.8774 15.8368 17.1101C15.2938 17.1877 14.7507 17.4204 14.3629 17.8083C13.975 18.1962 13.6647 18.6616 13.5095 19.2822C13.3544 19.8253 13.2768 20.3683 13.2768 21.0665C13.1992 21.6871 13.1992 22.2301 13.1992 22.6956C13.1992 23.161 13.1992 23.704 13.1992 24.4798C13.1992 25.2556 13.1992 25.8762 13.1992 26.264C13.1992 26.7295 13.2768 27.2725 13.2768 27.8931C13.3544 28.5137 13.4319 29.1343 13.5095 29.6774C13.6647 30.298 13.8974 30.7634 14.3629 31.1513C14.7507 31.5392 15.2938 31.7719 15.8368 31.8495C17.621 32.0822 20.2586 32.1598 23.8271 32.1598C27.3956 32.1598 30.1107 32.0822 31.8174 31.8495C32.3604 31.7719 32.9035 31.5392 33.2913 31.1513C33.6792 30.7634 33.9895 30.298 34.1447 29.6774C34.2998 29.1343 34.3774 28.5913 34.3774 27.8931C34.455 27.2725 34.455 26.7295 34.455 26.264C34.455 25.7986 34.455 25.2556 34.455 24.4798C34.455 23.704 34.455 23.0834 34.455 22.6956ZM27.9386 25.1004L21.8101 28.9016C21.7326 28.9792 21.5774 29.0568 21.4223 29.0568C21.2671 29.0568 21.1895 29.0568 21.0344 28.9792C20.8016 28.824 20.6465 28.5913 20.6465 28.281V20.601C20.6465 20.2907 20.8016 20.058 21.0344 19.9028C21.2671 19.7477 21.5774 19.7477 21.8101 19.9028L27.9386 23.704C28.1713 23.8592 28.3265 24.0919 28.3265 24.3247C28.3265 24.5574 28.1713 24.9453 27.9386 25.1004Z" fill="white"/>
</svg>
