<svg width="24" height="24" viewBox="0 0 24 24" fill="none" xmlns="http://www.w3.org/2000/svg">
<path fill-rule="evenodd" clip-rule="evenodd" d="M20.5896 6.12586C20.5722 6.12361 20.5454 6.12096 20.536 6.12026L20.5159 6.11914L20.4973 6.11854L20.4765 6.11826L20.4336 6.11816C20.4003 6.1182 20.3532 6.11839 20.2939 6.11873C20.1749 6.11941 20.0031 6.12068 19.7864 6.12246C19.3528 6.12601 18.7373 6.13159 18.001 6.13855C16.5284 6.15248 14.5712 6.17192 12.6164 6.19167C10.6614 6.21141 8.70863 6.23144 7.24456 6.24654L4.80511 6.27181L3.99805 6.28022L4.75147 15.2563L4.75083 15.2307L5.50067 15.2154L4.7533 15.2781L4.75147 15.2563C4.77708 16.1214 5.20054 16.7525 5.73646 17.1476C6.25303 17.5284 6.87683 17.6966 7.38578 17.6966H18.8099C20.1235 17.699 21.2366 16.7323 21.4224 15.4336L22.4161 8.56672C22.5865 7.38877 21.7688 6.2966 20.5927 6.12629L20.5896 6.12586ZM6.25051 15.2001L6.25003 15.1763L5.62781 7.76335L7.26003 7.74646C8.72404 7.73136 10.6767 7.71133 12.6315 7.69159C14.5863 7.67185 16.5431 7.6524 18.0152 7.63848C18.7514 7.63152 19.366 7.62595 19.7987 7.62241C20.0151 7.62063 20.1854 7.61938 20.3024 7.61871L20.4195 7.61823C20.4057 7.61533 20.3918 7.61285 20.3777 7.61081L20.4852 6.86855L20.3808 7.61125C20.398 7.61346 20.4244 7.61607 20.4333 7.61674L20.4515 7.61776L20.4651 7.61821L20.4351 7.61816L20.4195 7.61823C20.754 7.68878 20.9812 8.00877 20.9316 8.35203L19.9377 15.22L19.9375 15.2213C19.8573 15.7821 19.3769 16.1978 18.8123 16.1966L18.8106 16.1966H7.38578C7.17163 16.1966 6.86548 16.1163 6.62657 15.9402C6.41229 15.7822 6.25779 15.5563 6.25051 15.2001Z" fill="#949494"/>
<path fill-rule="evenodd" clip-rule="evenodd" d="M0.958756 2.54379C1.01714 2.13371 1.39691 1.84861 1.80699 1.907L3.01922 2.0796C4.28864 2.26034 5.26469 3.29439 5.37194 4.57212L5.55943 6.80587C5.59407 7.21864 5.28755 7.58133 4.87479 7.61598C4.46203 7.65062 4.09933 7.3441 4.06469 6.93134L3.87719 4.69759C3.82844 4.1168 3.38479 3.64678 2.80777 3.56462L1.59555 3.39202C1.18547 3.33363 0.900368 2.95387 0.958756 2.54379Z" fill="#949494"/>
<path fill-rule="evenodd" clip-rule="evenodd" d="M13.4766 10.7246C13.4766 10.3104 13.8123 9.97461 14.2266 9.97461H17.1307C17.5449 9.97461 17.8807 10.3104 17.8807 10.7246C17.8807 11.1388 17.5449 11.4746 17.1307 11.4746H14.2266C13.8123 11.4746 13.4766 11.1388 13.4766 10.7246Z" fill="#949494"/>
<path fill-rule="evenodd" clip-rule="evenodd" d="M6.92519 20.5771C7.24042 20.5771 7.49491 20.8327 7.49491 21.1469C7.49491 21.4621 7.24042 21.7176 6.92519 21.7176C6.60996 21.7176 6.35547 21.4621 6.35547 21.1469C6.35547 20.8327 6.60996 20.5771 6.92519 20.5771Z" fill="#949494"/>
<path fill-rule="evenodd" clip-rule="evenodd" d="M6.92519 21.3271C7.02507 21.3271 7.10547 21.246 7.10547 21.1469C7.10547 21.0497 7.02597 20.9676 6.92519 20.9676C6.82442 20.9676 6.74491 21.0497 6.74491 21.1469C6.74491 21.246 6.82531 21.3271 6.92519 21.3271ZM5.60547 21.1469C5.60547 20.4194 6.19485 19.8271 6.92519 19.8271C7.65553 19.8271 8.24491 20.4194 8.24491 21.1469C8.24491 21.8745 7.65643 22.4676 6.92519 22.4676C6.19395 22.4676 5.60547 21.8745 5.60547 21.1469Z" fill="#949494"/>
<path fill-rule="evenodd" clip-rule="evenodd" d="M18.7396 20.5771C19.0549 20.5771 19.3104 20.8327 19.3104 21.1469C19.3104 21.4621 19.0549 21.7176 18.7396 21.7176C18.4244 21.7176 18.1699 21.4621 18.1699 21.1469C18.1699 20.8327 18.4244 20.5771 18.7396 20.5771Z" fill="#949494"/>
<path fill-rule="evenodd" clip-rule="evenodd" d="M18.7396 21.3271C18.8395 21.3271 18.9199 21.246 18.9199 21.1469C18.9199 21.0497 18.8404 20.9676 18.7396 20.9676C18.6407 20.9676 18.5604 21.0479 18.5604 21.1469C18.5604 21.2478 18.6416 21.3271 18.7396 21.3271ZM17.4199 21.1469C17.4199 20.4194 18.0093 19.8271 18.7396 19.8271C19.4682 19.8271 20.0604 20.4176 20.0604 21.1469C20.0604 21.8763 19.4691 22.4676 18.7396 22.4676C18.0084 22.4676 17.4199 21.8745 17.4199 21.1469Z" fill="#949494"/>
</svg>
