<svg width="24" height="24" viewBox="0 0 24 24" fill="none" xmlns="http://www.w3.org/2000/svg">
<path fill-rule="evenodd" clip-rule="evenodd" d="M1.80699 1.907C1.39691 1.84861 1.01714 2.13371 0.958756 2.54379C0.900368 2.95387 1.18547 3.33363 1.59555 3.39202L2.80777 3.56462C3.38479 3.64678 3.82844 4.1168 3.87719 4.69759L4.01004 6.28033L3.99718 6.28047L4.7506 15.2565C4.77622 16.1216 5.19968 16.7527 5.7356 17.1478C6.25217 17.5286 6.87596 17.6968 7.38491 17.6968H18.809C20.1227 17.6993 21.2357 16.7325 21.4216 15.4339L22.4153 8.56696C22.5856 7.38901 21.7679 6.29685 20.5918 6.12653L20.5888 6.12611C20.5713 6.12385 20.5445 6.12121 20.5351 6.1205L20.5151 6.11939L20.4964 6.11879L20.4756 6.1185L20.4327 6.11841C20.3994 6.11844 20.3523 6.11864 20.293 6.11898C20.1741 6.11966 20.0022 6.12093 19.7855 6.1227C19.3519 6.12625 18.7365 6.13183 18.0002 6.13879C16.5275 6.15272 14.5704 6.17217 12.6155 6.19191C10.6606 6.21165 8.70776 6.23169 7.24369 6.24679L5.51401 6.2647L5.37194 4.57212C5.26469 3.29439 4.28864 2.26034 3.01922 2.0796L1.80699 1.907ZM4.7506 15.2565L4.74996 15.231L5.4998 15.2156L4.75243 15.2784L4.7506 15.2565ZM20.3768 7.61106C20.3909 7.6131 20.4049 7.61557 20.4186 7.61847L20.4342 7.61841L20.4642 7.61846L20.4506 7.618L20.4324 7.61699C20.4235 7.61632 20.3971 7.6137 20.3799 7.61149L20.4843 6.8688L20.3768 7.61106ZM14.2258 9.97485C13.8115 9.97485 13.4758 10.3106 13.4758 10.7249C13.4758 11.1391 13.8115 11.4749 14.2258 11.4749H17.1299C17.5441 11.4749 17.8799 11.1391 17.8799 10.7249C17.8799 10.3106 17.5441 9.97485 17.1299 9.97485H14.2258Z" fill="#DB0053"/>
<path d="M6.92449 19.8269C6.19415 19.8269 5.60477 20.4191 5.60477 21.1466C5.60477 21.8743 6.19325 22.4674 6.92449 22.4674C7.65573 22.4674 8.24421 21.8743 8.24421 21.1466C8.24421 20.4191 7.65483 19.8269 6.92449 19.8269Z" fill="#DB0053"/>
<path d="M18.7391 19.8269C18.0088 19.8269 17.4194 20.4191 17.4194 21.1466C17.4194 21.8743 18.0079 22.4674 18.7391 22.4674C19.4686 22.4674 20.0599 21.8761 20.0599 21.1466C20.0599 20.4173 19.4677 19.8269 18.7391 19.8269Z" fill="#DB0053"/>
</svg>
