<svg width="24" height="24" viewBox="0 0 24 24" fill="none" xmlns="http://www.w3.org/2000/svg">
<path fill-rule="evenodd" clip-rule="evenodd" d="M0.519531 2.91211C0.519531 2.4979 0.855318 2.16211 1.26953 2.16211H17.1926C17.6068 2.16211 17.9426 2.4979 17.9426 2.91211C17.9426 3.32632 17.6068 3.66211 17.1926 3.66211H1.26953C0.855318 3.66211 0.519531 3.32632 0.519531 2.91211ZM14.5014 7.06698C10.8143 7.06698 7.82525 10.056 7.82525 13.7431C7.82525 17.4303 10.8143 20.4193 14.5014 20.4193C16.3639 20.4193 18.0472 19.6575 19.259 18.4267C20.4463 17.2209 21.1775 15.5681 21.1775 13.7431C21.1775 10.056 18.1885 7.06698 14.5014 7.06698ZM6.32525 13.7431C6.32525 9.22756 9.98584 5.56698 14.5014 5.56698C19.017 5.56698 22.6775 9.22756 22.6775 13.7431C22.6775 15.7095 21.9826 17.5147 20.8261 18.9249L23.3785 21.4773C23.6714 21.7702 23.6714 22.2451 23.3785 22.5379C23.0856 22.8308 22.6107 22.8308 22.3178 22.5379L19.773 19.9931C18.35 21.1943 16.5098 21.9193 14.5014 21.9193C9.98584 21.9193 6.32525 18.2587 6.32525 13.7431ZM0.519531 9.06586C0.519531 8.65164 0.855318 8.31586 1.26953 8.31586H5.33287C5.74708 8.31586 6.08287 8.65164 6.08287 9.06586C6.08287 9.48007 5.74708 9.81586 5.33287 9.81586H1.26953C0.855318 9.81586 0.519531 9.48007 0.519531 9.06586ZM0.519531 15.1292C0.519531 14.715 0.855318 14.3792 1.26953 14.3792H4.43242C4.84663 14.3792 5.18242 14.715 5.18242 15.1292C5.18242 15.5434 4.84663 15.8792 4.43242 15.8792H1.26953C0.855318 15.8792 0.519531 15.5434 0.519531 15.1292Z" fill="#949494"/>
</svg>
