<svg width="24" height="24" viewBox="0 0 24 24" fill="none" xmlns="http://www.w3.org/2000/svg">
<path d="M0.769531 2.16211C0.355318 2.16211 0.0195313 2.4979 0.0195313 2.91211C0.0195313 3.32632 0.355318 3.66211 0.769531 3.66211H16.6926C17.1068 3.66211 17.4426 3.32632 17.4426 2.91211C17.4426 2.4979 17.1068 2.16211 16.6926 2.16211H0.769531Z" fill="#DB0053"/>
<path d="M14.0014 5.56698C9.48584 5.56698 5.82525 9.22756 5.82525 13.7431C5.82525 18.2587 9.48584 21.9193 14.0014 21.9193C16.0098 21.9193 17.85 21.1943 19.273 19.9931L21.8178 22.5379C22.1107 22.8308 22.5856 22.8308 22.8785 22.5379C23.1714 22.2451 23.1714 21.7702 22.8785 21.4773L20.3261 18.9249C21.4826 17.5147 22.1775 15.7095 22.1775 13.7431C22.1775 9.22756 18.517 5.56698 14.0014 5.56698Z" fill="#DB0053"/>
<path d="M0.769531 8.31586C0.355318 8.31586 0.0195313 8.65164 0.0195313 9.06586C0.0195313 9.48007 0.355318 9.81586 0.769531 9.81586H4.83287C5.24708 9.81586 5.58287 9.48007 5.58287 9.06586C5.58287 8.65164 5.24708 8.31586 4.83287 8.31586H0.769531Z" fill="#DB0053"/>
<path d="M0.769531 14.3792C0.355318 14.3792 0.0195313 14.715 0.0195312 15.1292C0.0195312 15.5434 0.355318 15.8792 0.769531 15.8792H3.93242C4.34663 15.8792 4.68242 15.5434 4.68242 15.1292C4.68242 14.715 4.34663 14.3792 3.93242 14.3792H0.769531Z" fill="#DB0053"/>
</svg>
