<svg width="24" height="24" viewBox="0 0 24 24" fill="none" xmlns="http://www.w3.org/2000/svg">
<path fill-rule="evenodd" clip-rule="evenodd" d="M12.8833 3.72808C12.4314 3.36648 11.7904 3.36241 11.3339 3.71826L4.13188 9.33255C3.82804 9.56941 3.65039 9.93314 3.65039 10.3184V19.8446C3.65039 20.5349 4.21004 21.0946 4.90039 21.0946H7.22214C7.9125 21.0946 8.47214 20.5349 8.47214 19.8446V16.416C8.47214 14.8972 9.70336 13.666 11.2221 13.666H12.7271C14.2459 13.666 15.4771 14.8972 15.4771 16.416V19.8446C15.4771 20.5349 16.0368 21.0946 16.7271 21.0946H19.0995C19.7899 21.0946 20.3495 20.5349 20.3495 19.8446V10.3027C20.3495 9.92305 20.1769 9.56394 19.8805 9.32672L12.8833 3.72808ZM10.4117 2.53524C11.4159 1.75239 12.8262 1.76133 13.8205 2.55685L20.8176 8.1555C21.4698 8.67737 21.8495 9.46742 21.8495 10.3027V19.8446C21.8495 21.3634 20.6183 22.5946 19.0995 22.5946H16.7271C15.2084 22.5946 13.9771 21.3634 13.9771 19.8446V16.416C13.9771 15.7256 13.4175 15.166 12.7271 15.166H11.2221C10.5318 15.166 9.97214 15.7256 9.97214 16.416V19.8446C9.97214 21.3634 8.74093 22.5946 7.22214 22.5946H4.90039C3.38161 22.5946 2.15039 21.3634 2.15039 19.8446V10.3184C2.15039 9.47084 2.54121 8.67063 3.20967 8.14954L10.4117 2.53524Z" fill="#949494"/>
</svg>
