<svg width="24" height="24" viewBox="0 0 24 24" fill="none" xmlns="http://www.w3.org/2000/svg">
<path d="M13.8205 2.55685C12.8262 1.76133 11.4159 1.75239 10.4117 2.53524L3.20967 8.14954C2.54121 8.67063 2.15039 9.47084 2.15039 10.3184L2.15039 19.8446C2.15039 21.3634 3.38161 22.5946 4.90039 22.5946H7.22214C8.74093 22.5946 9.97214 21.3634 9.97214 19.8446V16.416C9.97214 15.7256 10.5318 15.166 11.2221 15.166H12.7271C13.4175 15.166 13.9771 15.7256 13.9771 16.416V19.8446C13.9771 21.3634 15.2084 22.5946 16.7271 22.5946H19.0995C20.6183 22.5946 21.8495 21.3634 21.8495 19.8446V10.3027C21.8495 9.46742 21.4698 8.67737 20.8176 8.1555L13.8205 2.55685Z" fill="#DB0053"/>
</svg>
