<svg width="24" height="24" viewBox="0 0 24 24" fill="none" xmlns="http://www.w3.org/2000/svg">
<path fill-rule="evenodd" clip-rule="evenodd" d="M12 3.5C7.30621 3.5 3.5 7.30621 3.5 12C3.5 16.6938 7.30527 20.5 12 20.5C16.6938 20.5 20.5 16.6938 20.5 12C20.5 7.30527 16.6938 3.5 12 3.5ZM2 12C2 6.47779 6.47779 2 12 2C17.5222 2 22 6.47673 22 12C22 17.5222 17.5222 22 12 22C6.47673 22 2 17.5222 2 12Z" fill="#949494"/>
<path fill-rule="evenodd" clip-rule="evenodd" d="M14.9395 12.0127C14.9395 11.4604 15.3872 11.0127 15.9395 11.0127H15.9485C16.5007 11.0127 16.9485 11.4604 16.9485 12.0127C16.9485 12.565 16.5007 13.0127 15.9485 13.0127H15.9395C15.3872 13.0127 14.9395 12.565 14.9395 12.0127Z" fill="#949494"/>
<path fill-rule="evenodd" clip-rule="evenodd" d="M10.9316 12.0127C10.9316 11.4604 11.3794 11.0127 11.9316 11.0127H11.9406C12.4929 11.0127 12.9406 11.4604 12.9406 12.0127C12.9406 12.565 12.4929 13.0127 11.9406 13.0127H11.9316C11.3794 13.0127 10.9316 12.565 10.9316 12.0127Z" fill="#949494"/>
<path fill-rule="evenodd" clip-rule="evenodd" d="M6.92188 12.0127C6.92188 11.4604 7.36959 11.0127 7.92188 11.0127H7.93088C8.48316 11.0127 8.93087 11.4604 8.93087 12.0127C8.93087 12.565 8.48316 13.0127 7.93088 13.0127H7.92188C7.36959 13.0127 6.92188 12.565 6.92188 12.0127Z" fill="#949494"/>
</svg>
