<svg width="24" height="24" viewBox="0 0 24 24" fill="none" xmlns="http://www.w3.org/2000/svg">
<path d="M11.9857 14.5967C10.0504 14.5967 8.06616 14.9954 6.37062 15.7052C4.68804 16.4096 3.21194 17.4542 2.39691 18.8028C1.9293 19.5765 2.07995 20.3962 2.55701 20.9714C3.00701 21.514 3.73062 21.8363 4.48496 21.8371L19.4792 21.8537C20.2348 21.8545 20.9597 21.5346 21.4209 20.9983C21.9049 20.4355 22.0911 19.6253 21.6729 18.831C20.8922 17.3479 19.3953 16.296 17.6868 15.6181C15.9668 14.9356 13.9477 14.5967 11.9857 14.5967Z" fill="#DB0053"/>
<path fill-rule="evenodd" clip-rule="evenodd" d="M11.9864 12.7207C14.919 12.7207 17.296 10.3427 17.296 7.41011C17.296 4.47749 14.919 2.10059 11.9864 2.10059C9.05382 2.10059 6.67581 4.47749 6.67581 7.41011C6.66591 10.3328 9.02741 12.7108 11.949 12.7207H11.9864Z" fill="#DB0053"/>
</svg>
