<svg width="24" height="24" viewBox="0 0 24 24" fill="none" xmlns="http://www.w3.org/2000/svg">
<path fill-rule="evenodd" clip-rule="evenodd" d="M6.37062 15.7043C8.06616 14.9945 10.0504 14.5957 11.9857 14.5957C13.9477 14.5957 15.9668 14.9346 17.6868 15.6171C19.3953 16.295 20.8922 17.3469 21.6729 18.83C22.0911 19.6243 21.9049 20.4346 21.4209 20.9973C20.9597 21.5337 20.2348 21.8535 19.4792 21.8527L4.48496 21.8362C3.73062 21.8353 3.00701 21.5131 2.55701 20.9705C2.07995 20.3952 1.9293 19.5755 2.39691 18.8018C3.21194 17.4532 4.68804 16.4087 6.37062 15.7043ZM6.94986 17.0879C5.42935 17.7245 4.27036 18.6019 3.68066 19.5776C3.61607 19.6845 3.60997 19.7594 3.61495 19.8082C3.62048 19.8623 3.6454 19.9331 3.71161 20.0129C3.85191 20.1821 4.13725 20.3358 4.48661 20.3362L19.4809 20.3527C19.8308 20.3531 20.1279 20.2004 20.2836 20.0193C20.4167 19.8646 20.4423 19.7125 20.3456 19.5287C19.7951 18.483 18.6627 17.6181 17.1336 17.0114C15.6159 16.4092 13.7888 16.0957 11.9857 16.0957C10.2443 16.0957 8.45741 16.4568 6.94986 17.0879Z" fill="#949494"/>
<path fill-rule="evenodd" clip-rule="evenodd" d="M6.67581 7.4089C6.67646 4.47668 9.0543 2.10059 11.9863 2.10059C14.9189 2.10059 17.2958 4.47753 17.2958 7.41011C17.2958 10.3425 14.9191 12.7206 11.9863 12.7206H11.9539L11.9515 12.7206C9.02865 12.7107 6.66656 10.3322 6.67581 7.4089ZM6.67581 7.4089C6.67581 7.4085 6.67581 7.40809 6.67581 7.40769L7.39009 7.41011H6.67581C6.67581 7.40971 6.67581 7.4093 6.67581 7.4089ZM11.9863 3.52916C9.84249 3.52916 8.10438 5.2667 8.10438 7.41011V7.41253H8.10438C8.09714 9.54738 9.82183 11.2842 11.9552 11.292H11.9863C14.1297 11.292 15.8672 9.55391 15.8672 7.41011C15.8672 5.2665 14.1299 3.52916 11.9863 3.52916Z" fill="#949494"/>
</svg>
