<svg width="24" height="24" viewBox="0 0 24 24" fill="none" xmlns="http://www.w3.org/2000/svg">
<path fill-rule="evenodd" clip-rule="evenodd" d="M11.9009 4.60967C10.5464 3.65979 8.78967 3.38416 7.1961 3.89841C4.11287 4.89167 2.91452 8.28503 3.91279 11.4022C4.65576 13.7144 6.55741 15.8161 8.46319 17.4368C10.1447 18.8668 11.7663 19.8697 12.4276 20.2577C13.0918 19.8657 14.7255 18.8507 16.4138 17.4139C18.3271 15.7855 20.2251 13.6866 20.9424 11.4058L20.9434 11.4027C21.9405 8.28687 20.7362 4.89251 17.652 3.89865C16.0618 3.38846 14.2408 3.68988 12.9597 4.6048C12.6448 4.82964 12.2202 4.83361 11.9009 4.60967ZM12.4254 3.41334C10.7758 2.35089 8.69913 2.06248 6.80155 2.67473L12.4254 3.41334ZM12.4254 3.41334C14.0201 2.37619 16.156 2.06831 18.0451 2.6745C21.994 3.94664 23.3145 8.20929 22.1684 11.793C21.3394 14.4273 19.212 16.7208 17.247 18.393C15.2654 20.0795 13.3619 21.2064 12.8657 21.4902C12.5927 21.6464 12.2668 21.647 11.9931 21.4915C11.4979 21.2102 9.60655 20.0969 7.63027 18.4163C5.66907 16.7484 3.543 14.4544 2.68863 11.7953C1.54111 8.21262 2.85113 3.94755 6.80155 2.67473" fill="#1E1E1E"/>
<path fill-rule="evenodd" clip-rule="evenodd" d="M15.8165 6.50188C15.9258 6.16406 16.2882 5.97876 16.626 6.088C17.9431 6.51391 18.8739 7.68971 18.9859 9.06966C19.0147 9.42353 18.7511 9.73369 18.3972 9.76242C18.0433 9.79115 17.7332 9.52756 17.7044 9.17369C17.6345 8.31163 17.0533 7.57743 16.2304 7.31134C15.8926 7.20211 15.7073 6.8397 15.8165 6.50188Z" fill="#1E1E1E"/>
</svg>
