<svg width="92" height="92" viewBox="0 0 92 92" fill="none" xmlns="http://www.w3.org/2000/svg">
<path d="M75.5714 37.857C75.5714 58.7255 58.6542 75.6427 37.7857 75.6427C16.9172 75.6427 0 58.7255 0 37.857C0 16.9885 16.9172 0.0712891 37.7857 0.0712891C58.6542 0.0712891 75.5714 16.9885 75.5714 37.857Z" fill="#F5DCE6"/>
<path fill-rule="evenodd" clip-rule="evenodd" d="M29.0372 57.9833C28.277 53.6854 31.1448 49.5848 35.4428 48.8245L35.4895 48.8163L35.5367 48.811C50.2255 47.1615 58.3726 45.7343 72.8294 42.2142L72.8758 42.2028L72.9229 42.1945C77.2209 41.4342 81.3215 44.3021 82.0818 48.6001L85.8432 69.8639C86.6153 74.2284 83.6736 78.0281 79.52 79.0057C64.9808 82.4278 56.7114 83.8464 41.8787 85.6645C39.5972 85.9441 37.5082 85.4547 35.8757 84.2864C34.2417 83.1171 33.1691 81.3414 32.7987 79.2471C32.6544 78.4314 33.1987 77.6531 34.0145 77.5088C34.8302 77.3645 35.6085 77.9088 35.7528 78.7246C35.9984 80.1126 36.6782 81.1717 37.6215 81.8467C38.5663 82.5228 39.8795 82.8871 41.5137 82.6868C56.2478 80.8808 64.409 79.4804 78.8327 76.0855C81.64 75.4248 83.349 72.9864 82.8891 70.3864L79.8986 53.4808C61.7737 57.4481 50.9269 59.3358 32.7427 61.8197L34.0848 70.0042C34.2188 70.8217 33.6648 71.5931 32.8473 71.7271C32.0297 71.8612 31.2583 71.3071 31.1243 70.4896L29.5343 60.7931L29.0372 57.9833ZM32.239 58.8606C50.4465 56.375 61.2297 54.4983 79.3756 50.5242L79.1276 49.1226C78.6585 46.4709 76.1399 44.6966 73.4895 45.1411C58.9545 48.679 50.6863 50.1274 35.9218 51.7866C33.2795 52.2781 31.5223 54.8089 31.9914 57.4608L32.239 58.8606Z" fill="#DB0053"/>
<path fill-rule="evenodd" clip-rule="evenodd" d="M63.2088 65.7539C61.6178 65.7539 60.3281 67.0436 60.3281 68.6346C60.3281 70.2255 61.6178 71.5153 63.2088 71.5153C64.7998 71.5153 66.0895 70.2255 66.0895 68.6346C66.0895 67.0436 64.7998 65.7539 63.2088 65.7539ZM57.3281 68.6346C57.3281 65.3868 59.961 62.7539 63.2088 62.7539C66.4566 62.7539 69.0895 65.3868 69.0895 68.6346C69.0895 71.8824 66.4566 74.5153 63.2088 74.5153C59.961 74.5153 57.3281 71.8824 57.3281 68.6346Z" fill="#DB0053"/>
<path fill-rule="evenodd" clip-rule="evenodd" d="M71.01 64.1006C69.7154 64.1006 68.6166 64.9557 68.2551 66.1355L65.3867 65.2565C66.1236 62.8518 68.3603 61.1006 71.01 61.1006C74.2578 61.1006 76.8907 63.7335 76.8907 66.9813C76.8907 70.2291 74.2578 72.8619 71.01 72.8619C69.1432 72.8619 67.479 71.9904 66.4041 70.6378L68.7528 68.7714C69.283 69.4385 70.0966 69.8619 71.01 69.8619C72.6009 69.8619 73.8907 68.5722 73.8907 66.9813C73.8907 65.3903 72.6009 64.1006 71.01 64.1006Z" fill="#DB0053"/>
</svg>
