<svg width="92" height="92" viewBox="0 0 92 92" fill="none" xmlns="http://www.w3.org/2000/svg">
<path d="M75.5714 38.1431C75.5714 59.0116 58.6542 75.9288 37.7857 75.9288C16.9172 75.9288 0 59.0116 0 38.1431C0 17.2747 16.9172 0.357422 37.7857 0.357422C58.6542 0.357422 75.5714 17.2747 75.5714 38.1431Z" fill="#F5DCE6"/>
<path fill-rule="evenodd" clip-rule="evenodd" d="M58.5225 27.5283L59.3011 28.0012C67.4018 32.9212 72.5096 34.9067 81.4623 36.62L82.6804 36.8531V42.4178C82.6804 43.1212 82.6811 43.8155 82.6818 44.5008C82.6918 53.9332 82.7 61.6521 80.7661 67.9925C78.632 74.989 74.1758 80.2431 65.3265 84.593C64.583 84.9585 63.6841 84.652 63.3186 83.9086C62.9532 83.1651 63.2596 82.2662 64.0031 81.9007C72.2437 77.85 76.0454 73.1865 77.8966 67.1172C79.6936 61.2258 79.6883 53.953 79.6813 44.2854C79.6808 43.6725 79.6804 43.0501 79.6804 42.4178V39.3269C71.3729 37.6463 66.1176 35.5778 58.5225 31.0348C49.9583 36.1573 44.3765 38.1277 34.0814 39.9457C33.2656 40.0898 32.4875 39.5452 32.3434 38.7294C32.1994 37.9136 32.7439 37.1355 33.5597 36.9914C43.82 35.1795 49.0688 33.27 57.7438 28.0012L58.5225 27.5283ZM36.239 43.4793C37.0674 43.4787 37.7394 44.1498 37.74 44.9782C37.748 55.9669 37.9278 63.7051 40.6546 69.768C43.3118 75.6758 48.5127 80.2041 59.2533 84.3159C60.027 84.6121 60.4141 85.4794 60.1179 86.2531C59.8217 87.0267 58.9544 87.4138 58.1807 87.1176C47.0606 82.8605 41.0309 77.9183 37.9186 70.9986C34.8762 64.234 34.7478 55.788 34.74 44.9804C34.7395 44.1519 35.4105 43.4799 36.239 43.4793Z" fill="#DB0053"/>
<path fill-rule="evenodd" clip-rule="evenodd" d="M58.6225 44.8955L69.0223 50.8998V62.9085L58.6225 68.9129L48.2227 62.9085V50.8998L58.6225 44.8955ZM51.2227 54.3639L57.1225 57.7702V64.5827L51.2227 61.1765V54.3639ZM60.1225 64.5827L66.0223 61.1765V54.3639L60.1225 57.7702V64.5827ZM58.6225 55.1721L64.5223 51.7659L58.6225 48.3596L52.7227 51.7659L58.6225 55.1721Z" fill="#DB0053"/>
</svg>
