<svg width="92" height="93" viewBox="0 0 92 93" fill="none" xmlns="http://www.w3.org/2000/svg">
<path d="M75.5714 38.5006C75.5714 59.369 58.6542 76.2863 37.7857 76.2863C16.9172 76.2863 0 59.369 0 38.5006C0 17.6321 16.9172 0.714844 37.7857 0.714844C58.6542 0.714844 75.5714 17.6321 75.5714 38.5006Z" fill="#F5DCE6"/>
<path fill-rule="evenodd" clip-rule="evenodd" d="M42.2988 30.9785H84.7553C85.5837 30.9785 86.2553 31.6501 86.2553 32.4785C86.2553 33.3069 85.5837 33.9785 84.7553 33.9785H45.5851C47.2395 52.6335 47.0943 63.8165 45.5727 82.4501H80.5577C80.6139 81.6472 80.6694 80.8587 80.724 80.0832C81.8172 64.5537 82.5401 54.2837 81.1797 39.3451C81.1046 38.5201 81.7125 37.7904 82.5375 37.7152C83.3625 37.6401 84.0922 38.248 84.1673 39.073C85.5504 54.2598 84.8112 64.7543 83.7192 80.2571C83.6324 81.4895 83.5434 82.7535 83.453 84.0541L83.356 85.4501H42.3122L42.4486 83.8247C44.1289 63.7979 44.2915 52.6164 42.4496 32.6161L42.2988 30.9785ZM51.0338 42.2229C51.0338 41.3945 51.7053 40.7229 52.5338 40.7229H75.6392C76.4676 40.7229 77.1392 41.3945 77.1392 42.2229C77.1392 43.0513 76.4676 43.7229 75.6392 43.7229H52.5338C51.7053 43.7229 51.0338 43.0513 51.0338 42.2229ZM51.0338 50.6852C51.0338 49.8567 51.7053 49.1852 52.5338 49.1852H75.6392C76.4676 49.1852 77.1392 49.8567 77.1392 50.6852C77.1392 51.5136 76.4676 52.1852 75.6392 52.1852H52.5338C51.7053 52.1852 51.0338 51.5136 51.0338 50.6852Z" fill="#DB0053"/>
<path fill-rule="evenodd" clip-rule="evenodd" d="M70.0251 68.1836C68.3544 68.1836 67 69.538 67 71.2087C67 72.8794 68.3544 74.2338 70.0251 74.2338C71.6958 74.2338 73.0502 72.8794 73.0502 71.2087C73.0502 69.538 71.6958 68.1836 70.0251 68.1836ZM64 71.2087C64 67.8811 66.6975 65.1836 70.0251 65.1836C73.3527 65.1836 76.0502 67.8811 76.0502 71.2087C76.0502 74.5363 73.3527 77.2338 70.0251 77.2338C66.6975 77.2338 64 74.5363 64 71.2087Z" fill="#DB0053"/>
</svg>
