<svg width="92" height="92" viewBox="0 0 92 92" fill="none" xmlns="http://www.w3.org/2000/svg">
<path d="M75.5714 37.7857C75.5714 58.6542 58.6542 75.5714 37.7857 75.5714C16.9172 75.5714 0 58.6542 0 37.7857C0 16.9172 16.9172 0 37.7857 0C58.6542 0 75.5714 16.9172 75.5714 37.7857Z" fill="#F5DCE6"/>
<path fill-rule="evenodd" clip-rule="evenodd" d="M26.5117 40.0898H39.3013C40.1297 40.0898 40.8013 40.7614 40.8013 41.5898C40.8013 42.4183 40.1297 43.0898 39.3013 43.0898H29.766L30.3418 50.1578H73.0003C73.8287 50.1578 74.5003 50.8294 74.5003 51.6578C74.5003 52.4863 73.8287 53.1578 73.0003 53.1578H33.5876C34.2947 63.436 33.8388 70.9886 32.6753 82.4702H82.5284C81.1841 70.2011 81.1497 62.4329 81.9249 51.5513L82.0242 50.1578H84.9394L85.2849 43.0898H49.4004C48.572 43.0898 47.9004 42.4183 47.9004 41.5898C47.9004 40.7614 48.572 40.0898 49.4004 40.0898H88.4351L87.7964 53.1578H84.8215C84.129 63.6125 84.2539 71.2815 85.6967 83.7984L85.8894 85.4702H29.3503L29.5217 83.8156C30.81 71.378 31.3248 63.7775 30.5804 53.1578H27.5762L26.5117 40.0898Z" fill="#DB0053"/>
<path fill-rule="evenodd" clip-rule="evenodd" d="M67.4651 58.8401C68.1355 59.3269 68.2843 60.2649 67.7975 60.9352L56.8492 76.0119L47.3026 65.3948C46.7487 64.7788 46.799 63.8304 47.415 63.2765C48.0311 62.7226 48.9795 62.7729 49.5334 63.389L56.6006 71.2487L65.37 59.1724C65.8568 58.5021 66.7948 58.3533 67.4651 58.8401Z" fill="#DB0053"/>
</svg>
