<svg version="1.0" xmlns="http://www.w3.org/2000/svg" width="1200" height="276" viewBox="0 0 12000 2760"><path d="M875 2754c-246-29-411-99-561-237-156-145-242-298-290-517C6 1920 5 1855 5 960V5l112-3 112-3 3 978c4 962 4 979 25 1044 66 210 199 366 385 454 190 90 391 86 587-11 77-38 109-62 175-128 94-94 137-162 179-284 27-79 30-98 30-217s-3-138-30-217c-42-122-85-190-178-283-58-59-102-92-160-122-127-65-180-78-330-77-115 1-139 4-205 28-41 14-101 43-134 63-34 21-76 38-102 41-38 4-47 1-74-26-38-38-41-93-8-142 46-67 220-146 385-175 289-51 589 47 798 259 179 182 268 396 268 646-1 132-14 211-57 323-105 276-347 496-625 567-66 17-235 43-251 39-3-1-18-4-35-5zm2176-5c-387-46-685-308-793-697-22-76-22-89-25-1065l-4-988 113 3 113 3 5 990 5 990 29 75c68 179 164 296 313 385 395 233 898 13 1013-443 60-236-17-505-190-670-239-228-567-264-852-94-50 29-65 34-101 29-85-12-114-96-59-173 48-65 216-140 382-169 299-53 605 52 818 279 76 82 108 129 161 236 66 137 85 220 85 390 0 178-18 253-100 418-48 97-70 128-146 208-122 127-229 197-378 247-133 44-270 61-389 46zm2100 0c-385-47-695-317-793-692-31-118-31-327 0-447 25-94 69-194 127-285 48-76 204-230 278-273 278-166 603-185 874-52 91 45 193 121 217 162 34 56 14 123-44 153-46 24-71 18-130-30-233-191-557-206-812-38-127 84-237 233-284 388-14 46-18 92-18 195 0 155 11 206 77 335 56 111 190 245 297 297 102 50 169 68 276 75 167 11 320-32 460-128 53-36 85-44 128-29 96 31 87 151-16 216-183 116-438 178-637 153zm1844 5c-235-32-367-84-516-201-175-139-294-343-334-570-27-156-13-305 45-466 159-437 641-694 1085-578 145 39 322 138 370 209 44 64 29 134-35 167-46 24-72 18-130-31-64-53-162-105-246-130-83-26-285-26-368 0-304 92-506 364-506 681 0 169 71 350 187 475 135 146 281 216 473 227 168 10 257-16 482-139 54-29 61-30 98-19 47 14 70 43 70 91 0 69-40 110-176 178-140 71-381 122-499 106zm1805-1c-145-15-259-46-364-99-261-133-439-377-491-671-19-110-19-173 0-290 82-508 560-855 1058-768 165 29 339 108 385 175 40 60 23 135-39 160-42 18-84 8-164-38-113-65-199-87-340-86-133 0-195 14-299 66-134 67-247 181-311 313-110 223-96 492 36 695 197 305 561 413 874 260 147-72 260-186 331-335 72-152 68-83 72-1162l3-973h220l-3 993-3 992-28 88c-123 395-437 648-842 679-33 3-76 3-95 1zm2225 1c-263-32-415-99-577-253-139-131-217-265-264-450-29-112-33-289-9-399 65-311 290-575 581-681 163-60 308-74 470-46 103 18 149 33 248 79 130 60 182 128 153 198-18 44-38 59-86 65-33 5-51-1-115-36-41-23-108-54-148-68-65-24-87-26-208-26s-143 2-210 26c-112 41-201 100-285 189-128 136-187 287-187 478 0 125 17 202 72 315 73 151 177 255 326 326 197 94 393 92 593-7 77-38 109-62 175-128 93-93 136-160 180-283l31-88 3-982 3-983h219l-2 998c-4 1103 1 1019-69 1188-102 244-321 445-569 523-100 31-258 53-325 45z" fill="#FAFAFA"/><g fill="#FAFAFA"><path d="M3051 2749c-387-46-687-310-793-697-20-73-21-106-25-581-4-484-4-503 14-497 10 4 62 26 115 49l97 42 3 460 3 460 29 75c68 179 164 296 313 385 395 233 898 13 1013-443 47-185 11-393-97-558-18-28-33-54-33-58 0-3 59-6 130-6h131l34 73c61 127 79 212 79 377 0 178-18 253-100 418-48 97-70 128-146 208-122 127-229 197-378 247-133 44-270 61-389 46zm5749 4c-77-8-168-25-229-44-100-30-261-117-261-141 0-17 85-188 93-188 5 0 39 20 76 44 352 232 813 99 997-289 72-152 68-83 72-1162l3-973h220l-3 993-3 992-28 88c-123 395-437 648-842 679-33 3-76 3-95 1zm-3810-37c-311-93-549-341-632-659-31-118-31-327 0-447 25-94 69-194 127-285 48-76 204-230 278-273 167-99 351-148 527-138 87 5 242 31 204 35-7 1-19 18-27 38-8 21-27 64-41 96l-27 57-92-6c-283-20-540 122-666 366-63 123-75 176-75 330 0 155 11 206 77 335 79 155 260 305 420 347l47 12v108c0 126 6 122-120 84zm-3274-991c-55-25-102-43-104-40-3 3-18-31-32-75-38-112-83-183-175-275-58-59-102-92-160-122-127-65-180-78-330-77-115 1-139 4-205 28-41 14-101 43-134 63-34 21-76 38-102 41-38 4-47 1-74-26-38-38-41-93-7-142 62-93 337-190 537-190 71 0 208 22 275 45 251 84 465 278 565 514 56 131 88 301 58 301-7 0-58-21-112-45zm10154 2l-95-43-3-842-2-842h220v885c0 701-3 885-12 885-7 0-56-20-108-43zm-1575-376c49-95 196-240 316-312 126-75 317-129 459-129 236 0 524 115 560 225 9 26 8 41-3 67-18 44-38 59-86 65-33 5-51-1-115-36-41-23-108-54-148-68-65-24-87-26-208-26s-143 2-210 26c-100 36-193 95-260 162l-54 55h-267l16-29z"/><path d="M2644 1260c-33-13-54-50-54-93 0-45 1-45 115 8 39 18 79 35 90 37 16 3 11 9-26 31-46 27-86 33-125 17z"/></g><path d="M3051 2749c-387-46-696-319-791-697-22-88-24-112-9-112 5 0 47-25 93-55 45-30 89-55 98-55 12 0 16 17 21 78 17 214 150 422 344 537 395 233 898 13 1013-443 47-185 11-393-97-558-18-28-33-54-33-58 0-3 59-6 130-6h131l34 73c61 127 79 212 79 377 0 178-18 253-100 418-48 97-70 128-146 208-122 127-229 197-378 247-133 44-270 61-389 46zm1939-33c-311-93-549-341-632-659-31-118-31-327 0-447 25-94 70-195 126-282 35-56 152-188 165-188 3 0 30 38 59 85 30 47 58 85 63 85s-15 29-46 65c-60 71-112 167-141 260-26 85-26 305 0 390 70 230 268 431 479 487l47 12v108c0 126 6 122-120 84zm4477-383l-54-88 19-27c28-40 75-146 95-213 16-55 18-139 21-1032l3-973h220l-3 993-3 992-28 88c-46 148-158 347-196 347-13 0-36-27-74-87zm-3337-527c0-62 30-204 60-289 159-437 641-694 1085-578 145 39 322 138 370 209 44 64 29 134-35 167-46 24-72 18-130-31-64-53-162-105-246-130-83-26-285-26-368 0-129 39-248 114-334 213-95 106-172 301-172 433v40h-230v-34zM2 693L5 5l113-3 112-3v1381H0l2-687zm10293 658c49-95 196-240 316-312 126-75 317-129 459-129 76 0 222 23 289 46 72 24 191 82 191 92 0 6-26 27-57 48-32 20-77 50-100 65l-42 28-73-26c-65-24-88-26-208-26-121 0-143 2-210 26-100 36-193 95-260 162l-54 55h-267l16-29zM400 1242c-38-38-41-93-7-142 62-93 337-190 537-190 73 0 208 22 280 46 65 22 190 83 190 93 0 5-26 26-57 47-32 20-76 49-99 64l-41 27-74-25c-66-23-89-26-209-26-121 1-143 3-210 28-41 14-101 43-134 63-34 21-76 38-102 41-38 4-47 1-74-26zm8845 12c-16-8-52-28-80-44-64-36-162-66-248-75l-67-7V907l75 7c191 17 417 109 465 189 63 102-38 207-145 151zm2525-799V0h220v395c0 313-3 395-13 395-7 0-53 27-102 60-50 33-93 60-97 60-5 0-8-205-8-455z" fill="#FAFAFA"/></svg>