<svg width="56" height="57" viewBox="0 0 56 57" fill="none" xmlns="http://www.w3.org/2000/svg">
<path d="M46 23.0713C46 35.7738 35.7025 46.0713 23 46.0713C10.2975 46.0713 0 35.7738 0 23.0713C0 10.3687 10.2975 0.0712891 23 0.0712891C35.7025 0.0712891 46 10.3687 46 23.0713Z" fill="#C4E7E7"/>
<path fill-rule="evenodd" clip-rule="evenodd" d="M17.6211 27.8076H24.8959V29.8076H19.7748L20.082 33.9531H43.6075V35.9531H21.9025C22.2744 41.4728 22.0274 45.1844 21.4021 51.3395H48.7112C47.9841 44.6789 47.969 40.8791 48.3962 34.882L48.4624 33.9531H50.0733L50.2577 29.8076H34.3188V27.8076H52.3486L51.9864 35.9531H50.3274C49.9556 41.6142 50.0305 45.3479 50.8232 52.225L50.9517 53.3395H19.1853L19.2995 52.2364C20.0083 45.3939 20.2939 41.7008 19.8979 35.9531H18.2247L17.6211 27.8076Z" fill="#5E7575"/>
<path fill-rule="evenodd" clip-rule="evenodd" d="M29.5714 20.4541L30.4046 21.6346C31.6244 23.3629 32.4174 24.1796 34.2191 25.4493L35.3522 26.2478L34.2371 27.0712C32.5438 28.3215 31.7179 29.1266 30.3911 30.9176L29.5826 32.0088L28.7806 30.9129C27.5138 29.1821 26.6933 28.3705 24.937 27.0705L23.8223 26.2454L24.9574 25.4484C26.7115 24.2167 27.5391 23.4489 28.7601 21.6497L29.5714 20.4541ZM29.5981 23.9024C28.8465 24.8662 28.131 25.5594 27.1947 26.2868C28.1313 27.0479 28.835 27.7487 29.591 28.6826C30.3691 27.7258 31.0725 27.0251 31.9854 26.2823C31.0267 25.5264 30.327 24.8237 29.5981 23.9024Z" fill="#5E7575"/>
</svg>
