<svg width="56" height="56" viewBox="0 0 56 56" fill="none" xmlns="http://www.w3.org/2000/svg">
<path d="M46 23C46 35.7025 35.7025 46 23 46C10.2975 46 0 35.7025 0 23C0 10.2975 10.2975 0 23 0C35.7025 0 46 10.2975 46 23Z" fill="#C4E7E7"/>
<path fill-rule="evenodd" clip-rule="evenodd" d="M31.4684 30.8872C31.4684 27.556 34.1689 24.8555 37.5001 24.8555C40.8314 24.8555 43.5319 27.556 43.5319 30.8872V31.3318H54.9697L54.6593 32.5742C53.0848 38.8772 52.5012 43.8767 52.5778 49.3958L50.578 49.4236C50.504 44.0867 51.0306 39.2182 52.4173 33.3318H22.5324C23.7008 39.2392 24.348 44.1149 24.3685 49.4058L22.3686 49.4136C22.3473 43.9527 21.6385 38.9235 20.3314 32.5322L20.0859 31.3318H31.4684V30.8872ZM33.4684 31.3318H41.5319V30.8872C41.5319 28.6605 39.7268 26.8555 37.5001 26.8555C35.2735 26.8555 33.4684 28.6605 33.4684 30.8872V31.3318ZM22.2055 52.4294H52.7444V54.4294H22.2055V52.4294Z" fill="#5E7575"/>
<path fill-rule="evenodd" clip-rule="evenodd" d="M32.9226 38.7773C32.2858 38.7773 31.7695 39.2936 31.7695 39.9304C31.7695 40.5672 32.2858 41.0834 32.9226 41.0834C33.5594 41.0834 34.0756 40.5672 34.0756 39.9304C34.0756 39.2936 33.5594 38.7773 32.9226 38.7773ZM29.7695 39.9304C29.7695 38.189 31.1812 36.7773 32.9226 36.7773C34.6639 36.7773 36.0756 38.189 36.0756 39.9304C36.0756 41.6717 34.6639 43.0834 32.9226 43.0834C31.1812 43.0834 29.7695 41.6717 29.7695 39.9304Z" fill="#5E7575"/>
<path fill-rule="evenodd" clip-rule="evenodd" d="M42.0788 45.2246C41.442 45.2246 40.9258 45.7408 40.9258 46.3776C40.9258 47.0144 41.442 47.5307 42.0788 47.5307C42.7156 47.5307 43.2318 47.0144 43.2318 46.3776C43.2318 45.7408 42.7156 45.2246 42.0788 45.2246ZM38.9258 46.3776C38.9258 44.6363 40.3374 43.2246 42.0788 43.2246C43.8202 43.2246 45.2318 44.6363 45.2318 46.3776C45.2318 48.119 43.8202 49.5307 42.0788 49.5307C40.3374 49.5307 38.9258 48.119 38.9258 46.3776Z" fill="#5E7575"/>
<path fill-rule="evenodd" clip-rule="evenodd" d="M43.8445 38.0627L32.7873 49.1199L31.373 47.7056L42.4303 36.6484L43.8445 38.0627Z" fill="#5E7575"/>
</svg>
