<svg width="56" height="56" viewBox="0 0 56 56" fill="none" xmlns="http://www.w3.org/2000/svg">
<path d="M46 23C46 35.7025 35.7025 46 23 46C10.2975 46 0 35.7025 0 23C0 10.2975 10.2975 0 23 0C35.7025 0 46 10.2975 46 23Z" fill="#C4E7E7"/>
<path fill-rule="evenodd" clip-rule="evenodd" d="M21.6346 35.8897C21.1827 33.3354 22.8871 30.8984 25.4415 30.4465L25.4726 30.441L25.5041 30.4375C33.9793 29.4857 38.6776 28.6627 47.0188 26.6317L47.0498 26.6241L47.0812 26.6186C49.6356 26.1667 52.0726 27.8711 52.5244 30.4255L54.6961 42.7025C55.1558 45.3012 53.4024 47.5558 50.9441 48.1344C42.5446 50.1114 37.7652 50.9312 29.197 51.9815C27.8508 52.1465 26.6101 51.8583 25.6368 51.1618C24.6626 50.4646 24.0257 49.4074 23.8063 48.1667L25.7757 47.8183C25.9119 48.5882 26.2868 49.1676 26.8007 49.5353C27.3154 49.9037 28.039 50.1084 28.9536 49.9963C37.4562 48.9542 42.1634 48.1464 50.4859 46.1876C52.0466 45.8202 52.9783 44.4732 52.7267 43.0508L51.0244 33.4274C40.6873 35.6877 34.4403 36.7753 24.0732 38.1937L25.0025 43.4475L23.0331 43.7959L21.6346 35.8897ZM23.7245 36.2228C34.1145 34.8025 40.3207 33.722 50.6757 31.4564L50.555 30.7739C50.2973 29.3168 48.9146 28.3415 47.4586 28.583C39.0655 30.6258 34.2865 31.463 25.7612 32.4212C24.3104 32.6937 23.3462 34.0843 23.604 35.5413L23.7245 36.2228Z" fill="#5E7575"/>
<path fill-rule="evenodd" clip-rule="evenodd" d="M41.496 40.4863C40.6515 40.4863 39.9668 41.171 39.9668 42.0156C39.9668 42.8602 40.6515 43.5448 41.496 43.5448C42.3406 43.5448 43.0253 42.8602 43.0253 42.0156C43.0253 41.171 42.3406 40.4863 41.496 40.4863ZM37.9668 42.0156C37.9668 40.0664 39.5469 38.4863 41.496 38.4863C43.4452 38.4863 45.0253 40.0664 45.0253 42.0156C45.0253 43.9647 43.4452 45.5448 41.496 45.5448C39.5469 45.5448 37.9668 43.9647 37.9668 42.0156Z" fill="#5E7575"/>
<path fill-rule="evenodd" clip-rule="evenodd" d="M45.9998 39.5312C45.3128 39.5312 44.7292 39.985 44.5372 40.6114L42.625 40.0254C43.0672 38.5824 44.4094 37.5312 45.9998 37.5312C47.9489 37.5312 49.529 39.1113 49.529 41.0605C49.529 43.0097 47.9489 44.5898 45.9998 44.5898C44.8793 44.5898 43.8805 44.0665 43.2356 43.255L44.8014 42.0107C45.0832 42.3653 45.515 42.5898 45.9998 42.5898C46.8443 42.5898 47.529 41.9051 47.529 41.0605C47.529 40.2159 46.8443 39.5312 45.9998 39.5312Z" fill="#5E7575"/>
</svg>
