<svg width="56" height="56" viewBox="0 0 56 56" fill="none" xmlns="http://www.w3.org/2000/svg">
<path d="M46 23C46 35.7025 35.7025 46 23 46C10.2975 46 0 35.7025 0 23C0 10.2975 10.2975 0 23 0C35.7025 0 46 10.2975 46 23Z" fill="#C4E7E7"/>
<path fill-rule="evenodd" clip-rule="evenodd" d="M26.2228 50.5468V42.0781H28.2228V50.5468L29.9845 48.785C30.3751 48.3945 31.0082 48.3945 31.3988 48.785C31.7893 49.1755 31.7893 49.8087 31.3988 50.1992L27.2228 54.3752L23.0468 50.1992C22.6563 49.8087 22.6563 49.1755 23.0468 48.785C23.4373 48.3945 24.0705 48.3945 24.461 48.785L26.2228 50.5468Z" fill="#5E7575"/>
<path fill-rule="evenodd" clip-rule="evenodd" d="M49.0216 50.5468V42.0781H51.0216V50.5468L52.7834 48.785C53.1739 48.3945 53.8071 48.3945 54.1976 48.785C54.5881 49.1755 54.5881 49.8087 54.1976 50.1992L50.0216 54.3752L45.8456 50.1992C45.4551 49.8087 45.4551 49.1755 45.8456 48.785C46.2362 48.3945 46.8693 48.3945 47.2598 48.785L49.0216 50.5468Z" fill="#5E7575"/>
<path fill-rule="evenodd" clip-rule="evenodd" d="M38.622 19.3652C32.6262 19.3652 27.7656 24.2258 27.7656 30.2216C27.7656 36.2175 32.6262 41.078 38.622 41.078C44.6178 41.078 49.4784 36.2175 49.4784 30.2216C49.4784 24.2258 44.6178 19.3652 38.622 19.3652ZM25.7656 30.2216C25.7656 23.1212 31.5216 17.3652 38.622 17.3652C45.7224 17.3652 51.4784 23.1212 51.4784 30.2216C51.4784 37.322 45.7224 43.078 38.622 43.078C31.5216 43.078 25.7656 37.322 25.7656 30.2216Z" fill="#5E7575"/>
<path fill-rule="evenodd" clip-rule="evenodd" d="M38.622 19.3652C32.6262 19.3652 27.7656 24.2258 27.7656 30.2216C27.7656 36.2175 32.6262 41.078 38.622 41.078C44.6178 41.078 49.4784 36.2175 49.4784 30.2216C49.4784 24.2258 44.6178 19.3652 38.622 19.3652ZM25.7656 30.2216C25.7656 23.1212 31.5216 17.3652 38.622 17.3652C45.7224 17.3652 51.4784 23.1212 51.4784 30.2216C51.4784 37.322 45.7224 43.078 38.622 43.078C31.5216 43.078 25.7656 37.322 25.7656 30.2216Z" fill="#5E7575"/>
<path fill-rule="evenodd" clip-rule="evenodd" d="M39.4091 24.0654C39.7491 24.2343 39.9641 24.5813 39.9641 24.9609V33.6837H41.6277V35.6837H36.3006V33.6837H37.9641V26.9737L36.2218 28.2943L35.0137 26.7004L38.3601 24.164C38.6627 23.9346 39.0691 23.8964 39.4091 24.0654Z" fill="#5E7575"/>
</svg>
