<svg width="60" height="38" viewBox="0 0 60 38" fill="none" xmlns="http://www.w3.org/2000/svg">
<rect width="60" height="38" rx="8" fill="#F4F4FF"/>
<path d="M34.0162 19.1243C34.0162 24.7158 29.5355 29.2486 24.0081 29.2486C18.4808 29.2486 14 24.7158 14 19.1243C14 13.5328 18.4808 9 24.0081 9C29.5355 9 34.0162 13.5328 34.0162 19.1243Z" fill="#ED0006"/>
<path d="M46.9996 19.1243C46.9996 24.7158 42.5189 29.2486 36.9915 29.2486C31.4642 29.2486 26.9834 24.7158 26.9834 19.1243C26.9834 13.5328 31.4642 9 36.9915 9C42.5189 9 46.9996 13.5328 46.9996 19.1243Z" fill="#0099DF"/>
<path fill-rule="evenodd" clip-rule="evenodd" d="M30.4998 26.83C32.6517 24.9731 34.0162 22.2099 34.0162 19.1243C34.0162 16.0386 32.6517 13.2754 30.4998 11.4185C28.3479 13.2754 26.9834 16.0386 26.9834 19.1243C26.9834 22.2099 28.3479 24.9731 30.4998 26.83Z" fill="#6C6BBD"/>
</svg>
