<svg width="60" height="38" viewBox="0 0 60 38" fill="none" xmlns="http://www.w3.org/2000/svg">
<rect width="60" height="38" rx="8" fill="#FFF4EE"/>
<path fill-rule="evenodd" clip-rule="evenodd" d="M30.4999 26.8303C28.7523 28.3384 26.4853 29.2488 24.0082 29.2488C18.4808 29.2488 14 24.7159 14 19.1244C14 13.5328 18.4808 9 24.0082 9C26.4853 9 28.7523 9.9104 30.4999 11.4185C32.2475 9.9104 34.5145 9 36.9916 9C42.519 9 46.9998 13.5328 46.9998 19.1244C46.9998 24.7159 42.519 29.2488 36.9916 29.2488C34.5145 29.2488 32.2475 28.3384 30.4999 26.8303Z" fill="#ED0006"/>
<path fill-rule="evenodd" clip-rule="evenodd" d="M30.5 26.8302C32.652 24.9732 34.0165 22.21 34.0165 19.1243C34.0165 16.0387 32.652 13.2755 30.5001 11.4185C32.2477 9.91039 34.5146 9 36.9917 9C42.5191 9 46.9999 13.5328 46.9999 19.1244C46.9999 24.7159 42.5191 29.2488 36.9917 29.2488C34.5146 29.2488 32.2476 28.3383 30.5 26.8302Z" fill="#F9A000"/>
<path fill-rule="evenodd" clip-rule="evenodd" d="M30.4993 11.418C32.6516 13.275 34.0164 16.0384 34.0164 19.1243C34.0164 22.2097 32.6521 24.9728 30.5005 26.8297C28.3482 24.9727 26.9834 22.2093 26.9834 19.1234C26.9834 16.038 28.3477 13.275 30.4993 11.418Z" fill="#FF5E00"/>
</svg>
