<svg width="60" height="38" viewBox="0 0 60 38" fill="none" xmlns="http://www.w3.org/2000/svg">
<rect width="60" height="38" rx="8" fill="#E9FBE9"/>
<path d="M49.9797 11.5176H40.5781C41.1258 14.6647 44.1379 17.6267 47.4239 17.6267H54.9087C55 17.349 54.9999 16.8862 54.9999 16.6085C54.9999 13.8317 52.718 11.5176 49.9797 11.5176Z" fill="url(#paint0_linear_1702_7632)"/>
<path d="M41.3994 18.1816V25.8644H45.9633V21.7916H49.9795C52.1701 21.7916 54.087 20.218 54.7259 18.1816H41.3994Z" fill="#4FAD50"/>
<path d="M25.334 11.5176V25.7723H29.3502C29.3502 25.7723 30.3542 25.7723 30.9019 24.7541C33.6402 19.2929 34.4617 17.6267 34.4617 17.6267H35.0094V25.7723H39.5733V11.5176H35.5571C35.5571 11.5176 34.553 11.6101 34.0053 12.5358C31.7234 17.2565 30.4455 19.6631 30.4455 19.6631H29.8979V11.5176H25.334Z" fill="#4FAD50"/>
<path d="M6.16602 25.865V11.6104H10.7299C10.7299 11.6104 12.0078 11.6103 12.738 13.6467C14.5635 19.0154 14.7461 19.7559 14.7461 19.7559C14.7461 19.7559 15.1112 18.46 16.7542 13.6467C17.4844 11.6103 18.7623 11.6104 18.7623 11.6104H23.3262V25.865H18.7623V18.1823H18.2146L15.6589 25.865H13.6508L11.095 18.1823H10.5473V25.865H6.16602Z" fill="#4FAD50"/>
<defs>
<linearGradient id="paint0_linear_1702_7632" x1="40.5619" y1="14.6159" x2="54.9676" y2="14.6159" gradientUnits="userSpaceOnUse">
<stop stop-color="#27B1E6"/>
<stop offset="1" stop-color="#148ACA"/>
</linearGradient>
</defs>
</svg>
