<svg width="60" height="38" viewBox="0 0 60 38" fill="none" xmlns="http://www.w3.org/2000/svg">
<rect width="60" height="38" rx="8" fill="#F3FBFF"/>
<path fill-rule="evenodd" clip-rule="evenodd" d="M11.7608 12.6006H8.02746C7.77198 12.6006 7.5547 12.7863 7.51486 13.0384L6.00489 22.6119C5.97488 22.8008 6.12118 22.9711 6.31279 22.9711H8.09514C8.35062 22.9711 8.56791 22.7854 8.60774 22.5328L9.015 19.9507C9.05429 19.6978 9.2721 19.5124 9.52705 19.5124H10.7089C13.1682 19.5124 14.5875 18.3223 14.9583 15.964C15.1253 14.9323 14.9654 14.1216 14.4821 13.5537C13.9516 12.9305 13.0103 12.6006 11.7608 12.6006ZM12.1916 16.0972C11.9874 17.4368 10.9639 17.4368 9.97415 17.4368H9.41077L9.806 14.9348C9.82947 14.7838 9.96048 14.6724 10.1133 14.6724H10.3715C11.0457 14.6724 11.6818 14.6724 12.0104 15.0566C12.2062 15.286 12.2663 15.6265 12.1916 16.0972ZM22.9208 16.0542H21.133C20.9807 16.0542 20.849 16.1656 20.8255 16.317L20.7465 16.8169L20.6214 16.6358C20.2344 16.0739 19.3714 15.8862 18.51 15.8862C16.5342 15.8862 14.8469 17.3825 14.5182 19.4816C14.3475 20.5285 14.5902 21.5296 15.1842 22.2279C15.7291 22.8698 16.5087 23.1373 17.4361 23.1373C19.0279 23.1373 19.9108 22.1137 19.9108 22.1137L19.831 22.6106C19.8009 22.8006 19.9472 22.9709 20.1376 22.9709H21.7481C22.0043 22.9709 22.2203 22.7852 22.2607 22.5326L23.227 16.4135C23.2576 16.2253 23.1118 16.0542 22.9208 16.0542ZM20.4287 19.5339C20.2561 20.5553 19.4455 21.2409 18.4117 21.2409C17.8926 21.2409 17.4775 21.0744 17.2112 20.7589C16.947 20.4456 16.8464 19.9995 16.9306 19.5028C17.0917 18.49 17.9161 17.7822 18.9341 17.7822C19.4417 17.7822 19.8545 17.9507 20.1263 18.269C20.3986 18.5906 20.5067 19.0392 20.4287 19.5339ZM30.6459 16.054H32.4425C32.6941 16.054 32.8409 16.3362 32.6979 16.5426L26.7226 25.1677C26.6258 25.3074 26.4664 25.3905 26.2962 25.3905H24.5018C24.2491 25.3905 24.1016 25.1061 24.2479 24.8991L26.1085 22.2729L24.1296 16.4655C24.0612 16.2637 24.2102 16.054 24.425 16.054H26.1903C26.4197 16.054 26.622 16.2045 26.6882 16.4241L27.7384 19.9315L30.2164 16.2816C30.3134 16.1391 30.4746 16.054 30.6459 16.054Z" fill="#253B80"/>
<path fill-rule="evenodd" clip-rule="evenodd" d="M50.126 22.6114L51.6582 12.8628C51.6817 12.7115 51.8128 12.6001 51.9652 12.5996H53.6901C53.8806 12.5996 54.0268 12.7704 53.9968 12.9593L52.4858 22.5323C52.4464 22.785 52.2291 22.9706 51.9732 22.9706H50.4327C50.2422 22.9706 50.096 22.8004 50.126 22.6114ZM38.3918 12.6001H34.6578C34.4029 12.6001 34.1856 12.7858 34.1457 13.0379L32.6358 22.6114C32.6057 22.8004 32.752 22.9706 32.9427 22.9706H34.8586C35.0367 22.9706 35.1891 22.8408 35.2168 22.664L35.6453 19.9503C35.6847 19.6974 35.9025 19.5119 36.1574 19.5119H37.3386C39.7985 19.5119 41.2175 18.3218 41.5886 15.9636C41.7561 14.9318 41.5951 14.1212 41.1121 13.5533C40.5818 12.93 39.6413 12.6001 38.3918 12.6001ZM38.8226 16.0967C38.6189 17.4364 37.5953 17.4364 36.605 17.4364H36.0422L36.438 14.9344C36.4615 14.7833 36.5914 14.6719 36.7447 14.6719H37.0029C37.6767 14.6719 38.3133 14.6719 38.6417 15.0561C38.8377 15.2855 38.8973 15.6261 38.8226 16.0967ZM49.5508 16.0538H47.7642C47.6106 16.0538 47.4803 16.1652 47.4573 16.3165L47.3782 16.8164L47.2527 16.6353C46.8657 16.0735 46.0032 15.8858 45.1417 15.8858C43.166 15.8858 41.4792 17.3821 41.1505 19.4811C40.9802 20.528 41.222 21.5292 41.8159 22.2274C42.3618 22.8693 43.1404 23.1369 44.0678 23.1369C45.6596 23.1369 46.5423 22.1132 46.5423 22.1132L46.4627 22.6101C46.4327 22.8001 46.5789 22.9704 46.7707 22.9704H48.3804C48.6353 22.9704 48.8526 22.7847 48.8925 22.5321L49.8593 16.413C49.8888 16.2248 49.7426 16.0538 49.5508 16.0538ZM47.0589 19.5334C46.8874 20.5548 46.0757 21.2404 45.0417 21.2404C44.5236 21.2404 44.1077 21.0739 43.8412 20.7584C43.577 20.4451 43.4777 19.999 43.5608 19.5023C43.7227 18.4896 44.546 17.7817 45.5641 17.7817C46.0719 17.7817 46.4844 17.9502 46.7565 18.2685C47.0299 18.5901 47.138 19.0388 47.0589 19.5334Z" fill="#179BD7"/>
</svg>
