<svg width="60" height="38" viewBox="0 0 60 38" fill="none" xmlns="http://www.w3.org/2000/svg">
<rect width="60" height="38" rx="8" fill="#EBFBF1"/>
<g clip-path="url(#clip0_1702_7621)">
<path d="M11 18.5326C11 13.2667 15.2742 9 20.4833 9H39.5167C44.7926 9 49 13.2667 49 18.5326C49 23.7986 44.7258 27.9992 39.5167 27.9992H20.5502C15.2742 28.066 11 23.7994 11 18.5326Z" fill="url(#paint0_linear_1702_7621)"/>
<path d="M29.9665 19.5989V21.7986H28.6973V14.7988H31.035C33.239 14.7988 34.1738 15.5986 34.1738 17.1321C34.1738 18.6656 33.1053 19.5989 31.035 19.5989H29.9665ZM29.9665 15.9325V18.466H31.1688C32.3042 18.466 32.9054 18.0662 32.9054 17.1329C32.9054 16.2663 32.3711 15.9332 31.1688 15.9332H29.9665V15.9325Z" fill="white"/>
<path d="M34.8415 17.1317C35.1751 16.8654 35.7763 16.665 36.6449 16.665C38.114 16.665 38.8489 17.1317 38.8489 18.4649V21.7315H37.7804V20.8649C37.5136 21.4651 36.9125 21.865 36.1107 21.865C35.109 21.865 34.5078 21.2648 34.5078 20.3315C34.5078 19.1979 35.3089 18.8648 36.5781 18.8648H37.7135V18.6644C37.7135 17.9315 37.3799 17.7311 36.7118 17.7311C35.777 17.7311 35.2427 18.0642 34.9083 18.5977L34.8415 17.1309V17.1317ZM37.6466 19.9984V19.5985H36.6449C35.9769 19.5985 35.6433 19.7321 35.6433 20.1987C35.6433 20.5986 35.91 20.7989 36.4443 20.7989C37.2453 20.7989 37.5797 20.3323 37.6466 19.9991V19.9984Z" fill="white"/>
<path d="M39.3828 16.7322H40.652L41.9873 20.1323L43.1228 16.7322H44.3251L42.3217 22.1985C41.8543 23.3981 41.4538 23.6652 40.7858 23.6652C40.4521 23.6652 40.1177 23.5985 39.9847 23.4649V22.3981C40.1185 22.5316 40.3853 22.6644 40.5859 22.6644C40.9195 22.6644 41.1871 22.3981 41.3869 21.7311L39.3836 16.7314L39.3828 16.7322Z" fill="white"/>
<path d="M18.4795 17.1319V18.6654L20.4829 19.9318L25.3583 16.3989C25.1576 15.999 24.9577 15.6659 24.6902 15.332L20.4829 18.3983L18.4795 17.1319Z" fill="white"/>
<path d="M24.6234 18.3992V18.5328C24.6234 19.4661 24.2898 20.3326 23.7555 21.0664C23.2212 21.8001 22.4202 22.266 21.4846 22.5331C20.6167 22.7334 19.6811 22.6667 18.8132 22.2668C17.9453 21.8669 17.2772 21.2667 16.8767 20.4669C16.4762 19.6672 16.2756 18.7339 16.4762 17.8006C16.61 16.8673 17.0774 16.0675 17.8115 15.4673C18.4796 14.8671 19.3475 14.4672 20.2823 14.4672C21.2171 14.4004 22.0858 14.6675 22.8868 15.2002L23.9554 14.4672C23.0206 13.7342 21.8182 13.2676 20.6159 13.2676C19.4136 13.2676 18.212 13.6675 17.2765 14.4012C16.3417 15.1342 15.6736 16.201 15.4069 17.4014C15.1401 18.6011 15.2731 19.8015 15.8074 20.8683C16.3417 21.9352 17.2096 22.8685 18.2782 23.3351C19.3467 23.8686 20.6159 24.0021 21.7506 23.735C22.9529 23.4687 23.9546 22.8017 24.7556 21.8684C25.4906 20.9351 25.8911 19.7355 25.8911 18.5351C25.8911 18.202 25.8911 17.8681 25.8242 17.6018L24.6219 18.4015L24.6234 18.3992Z" fill="white"/>
</g>
<defs>
<linearGradient id="paint0_linear_1702_7621" x1="19.0081" y1="30.9691" x2="40.7316" y2="6.28324" gradientUnits="userSpaceOnUse">
<stop stop-color="#C7E701"/>
<stop offset="0.24" stop-color="#0ADA01"/>
<stop offset="0.44" stop-color="#21DE58"/>
<stop offset="0.63" stop-color="#3EE3A9"/>
<stop offset="0.81" stop-color="#37DABE"/>
<stop offset="1" stop-color="#15CAE0"/>
</linearGradient>
<clipPath id="clip0_1702_7621">
<rect width="38" height="19" fill="white" transform="translate(11 9)"/>
</clipPath>
</defs>
</svg>
