<svg width="60" height="38" viewBox="0 0 60 38" fill="none" xmlns="http://www.w3.org/2000/svg">
<rect width="60" height="38" rx="8" fill="#E8F4FF"/>
<path d="M19.6198 8.00098H28.0569C29.2347 8.00098 29.9672 8.96094 29.6925 10.1426L25.7644 27.0073C25.4872 28.1849 24.308 29.1456 23.1294 29.1456H14.6931C13.5171 29.1456 12.7829 28.1849 13.0576 27.0073L16.9874 10.1426C17.2621 8.96094 18.4407 8.00098 19.6198 8.00098Z" fill="#E21836"/>
<path d="M27.3547 8H37.0571C38.2347 8 37.7037 8.95996 37.4267 10.1416L33.4992 27.0063C33.2236 28.1839 33.3096 29.1447 32.1296 29.1447H22.4271C21.2471 29.1447 20.5169 28.1839 20.7941 27.0063L24.7214 10.1416C25.0002 8.95996 26.1763 8 27.3547 8Z" fill="#00447C"/>
<path d="M36.6726 8H45.1097C46.2891 8 47.0216 8.95996 46.7446 10.1416L42.8172 27.0063C42.54 28.1839 41.36 29.1447 40.1808 29.1447H31.7476C30.5676 29.1447 29.8357 28.1839 30.1121 27.0063L34.0401 10.1416C34.3149 8.95996 35.4926 8 36.6726 8Z" fill="#007B84"/>
<path d="M21.8233 13.4048C20.9556 13.4136 20.6994 13.4048 20.6175 13.3854C20.5861 13.535 20.0006 16.2357 19.999 16.238C19.8729 16.7844 19.7812 17.1739 19.4696 17.4254C19.2928 17.5716 19.0863 17.6421 18.8469 17.6421C18.4622 17.6421 18.238 17.4511 18.2004 17.0887L18.1932 16.9643C18.1932 16.9643 18.3104 16.2324 18.3104 16.2283C18.3104 16.2283 18.9249 13.7671 19.0349 13.4418C19.0406 13.4233 19.0423 13.4136 19.0437 13.4048C17.8477 13.4153 17.6357 13.4048 17.6211 13.3854C17.613 13.412 17.5834 13.5646 17.5834 13.5646L16.956 16.3385L16.9021 16.5738L16.7979 17.3433C16.7979 17.5716 16.8427 17.7579 16.9319 17.9154C17.2178 18.415 18.0332 18.4898 18.4944 18.4898C19.0888 18.4898 19.6463 18.3636 20.023 18.133C20.677 17.7466 20.8481 17.1426 21.0007 16.6059L21.0714 16.3305C21.0714 16.3305 21.7044 13.7743 21.8119 13.4418C21.8161 13.4233 21.8177 13.4136 21.8233 13.4048ZM23.9769 15.4669C23.8244 15.4669 23.5455 15.5039 23.295 15.6267C23.2041 15.6734 23.1182 15.7272 23.0275 15.7809L23.1093 15.4854L23.0645 15.4356C22.5333 15.5432 22.4144 15.5576 21.9238 15.6267L21.8826 15.654C21.8257 16.1264 21.7751 16.4816 21.5639 17.41C21.4835 17.7522 21.4 18.0977 21.3163 18.4391L21.3389 18.4825C21.8417 18.456 21.9943 18.456 22.4313 18.4632L22.4667 18.4247C22.5222 18.1403 22.5294 18.0737 22.6524 17.4977C22.7102 17.2246 22.8307 16.6245 22.8901 16.4108C22.9993 16.3602 23.1071 16.3105 23.2099 16.3105C23.4548 16.3105 23.425 16.5241 23.4155 16.6093C23.405 16.7522 23.3158 17.219 23.2243 17.6198L23.1632 17.8785C23.1206 18.0696 23.0739 18.2553 23.0314 18.4447L23.0499 18.4825C23.5455 18.456 23.6966 18.456 24.1199 18.4632L24.1696 18.4247C24.2461 17.9805 24.2685 17.8617 24.4043 17.2149L24.4726 16.9177C24.6052 16.3362 24.6718 16.0413 24.5715 15.8011C24.4654 15.5319 24.2108 15.4669 23.9769 15.4669ZM26.3829 16.0758C26.1194 16.1264 25.9514 16.1601 25.7844 16.1819C25.6189 16.2084 25.4574 16.2325 25.2028 16.2679L25.1827 16.2862L25.1642 16.3008C25.1377 16.4904 25.1191 16.6543 25.084 16.847C25.0542 17.0462 25.0083 17.2727 24.9337 17.598C24.8759 17.847 24.846 17.9338 24.8131 18.0214C24.7811 18.109 24.7457 18.1942 24.6807 18.4391L24.6959 18.4617L24.7087 18.4825C24.9466 18.4712 25.1023 18.4631 25.2623 18.4617C25.4221 18.456 25.5876 18.4617 25.8439 18.4631L25.8663 18.4448L25.8903 18.4247C25.9273 18.2038 25.9329 18.1444 25.9555 18.0366C25.9779 17.9211 26.0166 17.7611 26.1114 17.3337C26.1562 17.133 26.2062 16.9329 26.2527 16.7281C26.301 16.5241 26.3516 16.3232 26.3997 16.1225L26.3925 16.0982L26.3829 16.0758ZM26.3885 15.2548C26.1491 15.1135 25.729 15.1584 25.4462 15.3535C25.1642 15.5448 25.1322 15.8162 25.3707 15.9594C25.606 16.0967 26.0278 16.0558 26.3081 15.859C26.5894 15.6636 26.6245 15.3946 26.3885 15.2548ZM27.8361 18.5268C28.3204 18.5268 28.8169 18.3933 29.1905 17.9972C29.478 17.676 29.6098 17.1981 29.6555 17.0013C29.8042 16.3489 29.6884 16.0444 29.543 15.8589C29.3221 15.5761 28.9318 15.4854 28.5269 15.4854C28.2834 15.4854 27.7035 15.5095 27.2504 15.9272C26.9251 16.2284 26.7748 16.6373 26.6841 17.0292C26.5926 17.4286 26.4873 18.1475 27.1484 18.4151C27.3524 18.5027 27.6465 18.5268 27.8361 18.5268ZM27.7983 17.059C27.9099 16.5651 28.0418 16.1505 28.3782 16.1505C28.6418 16.1505 28.661 16.459 28.5438 16.9546C28.5228 17.0646 28.4265 17.4736 28.2964 17.6478C28.2055 17.7763 28.0979 17.8543 27.979 17.8543C27.9437 17.8543 27.7333 17.8543 27.73 17.5419C27.7284 17.3877 27.7598 17.2301 27.7983 17.059ZM30.8661 18.4632L30.904 18.4248C30.9576 18.1404 30.9665 18.0735 31.0854 17.4977C31.1448 17.2246 31.2678 16.6245 31.3255 16.4109C31.435 16.3601 31.5409 16.3103 31.647 16.3103C31.8903 16.3103 31.8606 16.524 31.851 16.6091C31.8421 16.7522 31.7529 17.2189 31.6597 17.6197L31.6019 17.8784C31.5577 18.0696 31.5096 18.2551 31.467 18.4447L31.4855 18.4826C31.9828 18.456 32.1282 18.456 32.5539 18.4632L32.6053 18.4248C32.6799 17.9804 32.7001 17.8615 32.8399 17.215L32.9066 16.9176C33.0398 16.336 33.1073 16.0413 33.0086 15.8011C32.8994 15.5319 32.6431 15.4669 32.4126 15.4669C32.2598 15.4669 31.9795 15.5038 31.7305 15.6267C31.6414 15.6734 31.5522 15.7271 31.4646 15.781L31.5409 15.4855L31.4999 15.4355C30.969 15.5432 30.8476 15.5576 30.3576 15.6267L30.3199 15.6541C30.2605 16.1265 30.2122 16.4814 30.001 17.4101C29.9206 17.7523 29.8371 18.0978 29.7536 18.4392L29.776 18.4826C30.2796 18.456 30.43 18.456 30.8661 18.4632ZM34.5196 18.4825C34.5508 18.3299 34.7365 17.4254 34.7382 17.4254C34.7382 17.4254 34.8963 16.7618 34.906 16.7377C34.906 16.7377 34.9557 16.6686 35.0055 16.6413H35.0787C35.7695 16.6413 36.5495 16.6413 37.1609 16.1915C37.5769 15.8831 37.8613 15.4276 37.9882 14.874C38.0211 14.7382 38.0454 14.5768 38.0454 14.4154C38.0454 14.2033 38.0028 13.9936 37.8798 13.8297C37.5681 13.3935 36.9472 13.3855 36.2305 13.3822C36.2283 13.3822 35.8772 13.3855 35.8772 13.3855C34.9599 13.3968 34.5919 13.3935 34.4408 13.375C34.428 13.4418 34.404 13.5607 34.404 13.5607C34.404 13.5607 34.0754 15.0837 34.0754 15.0862C34.0754 15.0862 33.289 18.3243 33.252 18.4769C34.0529 18.4672 34.3814 18.4672 34.5196 18.4825ZM35.1285 15.777C35.1285 15.777 35.4779 14.257 35.4762 14.2628L35.4875 14.1848L35.4925 14.1254L35.6321 14.1398C35.6321 14.1398 36.3527 14.2017 36.3696 14.2033C36.654 14.3134 36.7712 14.597 36.6893 14.9671C36.6147 15.3054 36.3953 15.5898 36.1133 15.7272C35.8812 15.8436 35.5967 15.8533 35.3037 15.8533H35.1141L35.1285 15.777ZM37.3039 17.0872C37.2116 17.4808 37.1055 18.1998 37.7633 18.456C37.9731 18.5452 38.161 18.5718 38.3521 18.5621C38.5538 18.5512 38.7408 18.45 38.9139 18.3044C38.8983 18.3643 38.8827 18.4241 38.867 18.4842L38.8968 18.5226C39.37 18.5027 39.5169 18.5027 40.0296 18.5066L40.076 18.4712C40.1509 18.0311 40.2214 17.6038 40.416 16.7619C40.5108 16.3586 40.6054 15.9592 40.7026 15.5576L40.6874 15.5134C40.1581 15.6115 40.0166 15.6325 39.5074 15.7046L39.4688 15.7361C39.4636 15.777 39.4583 15.8163 39.4533 15.8556C39.3742 15.7277 39.2594 15.6185 39.0823 15.5504C38.8559 15.4614 38.3241 15.5761 37.867 15.9923C37.5457 16.2895 37.3915 16.6967 37.3039 17.0872ZM38.4156 17.1113C38.5289 16.6261 38.6591 16.2157 38.9964 16.2157C39.2096 16.2157 39.3219 16.4125 39.2991 16.7481C39.281 16.8318 39.2615 16.92 39.2382 17.0198C39.2045 17.1639 39.1679 17.3068 39.1323 17.45C39.0961 17.5479 39.054 17.6402 39.0077 17.7017C38.9209 17.8247 38.7144 17.9009 38.5956 17.9009C38.5618 17.9009 38.3537 17.9009 38.3465 17.5941C38.3449 17.4413 38.3764 17.284 38.4156 17.1113ZM44.2212 15.5095L44.1802 15.4628C43.6565 15.5689 43.5617 15.5858 43.0804 15.6507L43.0451 15.6861C43.0434 15.6919 43.042 15.7007 43.0395 15.7087L43.0379 15.7007C42.6796 16.5272 42.6901 16.3489 42.3985 16.9996C42.3969 16.97 42.3969 16.9515 42.3952 16.92L42.3222 15.5095L42.2764 15.4628C41.7277 15.5689 41.7147 15.5858 41.208 15.6507L41.1685 15.6861C41.163 15.703 41.163 15.7215 41.1597 15.7416L41.163 15.7488C41.2263 16.0725 41.2111 16.0003 41.2746 16.5112C41.3043 16.7618 41.3437 17.014 41.3734 17.2616C41.4233 17.676 41.4513 17.88 41.5124 18.5123C41.1702 19.077 41.0892 19.2907 40.7597 19.7863L40.762 19.7912L40.53 20.1581C40.5035 20.1968 40.4794 20.2233 40.4457 20.2346C40.4087 20.2529 40.3605 20.2562 40.2937 20.2562H40.1652L39.9741 20.8917L40.6295 20.903C41.0143 20.9013 41.2561 20.7214 41.3863 20.4795L41.7984 19.7733H41.7919L41.8352 19.7236C42.1125 19.1268 44.2212 15.5095 44.2212 15.5095ZM37.3039 23.8551H37.0258L38.0549 20.4515H38.3963L38.5047 20.1008L38.5151 20.4908C38.5024 20.7318 38.692 20.9454 39.1901 20.9101H39.7661L39.9643 20.2547H39.7476C39.623 20.2547 39.5652 20.2232 39.5724 20.1558L39.5619 19.7591H38.4952V19.7611C38.1503 19.7683 37.1204 19.7942 36.9119 19.8497C36.6596 19.9147 36.3937 20.106 36.3937 20.106L36.4982 19.7549H35.5004L35.2924 20.4515L34.2496 23.9072H34.0473L33.8488 24.5578H35.8362L35.7695 24.7748H36.7488L36.8138 24.5578H37.0886L37.3039 23.8551ZM36.4885 21.1431C36.3287 21.1873 36.0313 21.3214 36.0313 21.3214L36.2958 20.4515H37.0886L36.8973 21.0853C36.8973 21.0853 36.6524 21.0997 36.4885 21.1431ZM36.5037 22.3858C36.5037 22.3858 36.2547 22.417 36.0908 22.4541C35.9293 22.503 35.6266 22.6572 35.6266 22.6572L35.8997 21.752H36.6966L36.5037 22.3858ZM36.0595 23.8632H35.2643L35.4948 23.0992H36.2876L36.0595 23.8632ZM37.9746 21.752H39.1209L38.9562 22.2854H37.7947L37.6203 22.8687H38.6366L37.8671 23.9522C37.8132 24.0318 37.7649 24.06 37.7112 24.0824C37.6573 24.1097 37.5866 24.1418 37.5047 24.1418H37.2228L37.0291 24.7806H37.7665C38.1498 24.7806 38.3763 24.6062 38.5434 24.3773L39.0711 23.655L39.1844 24.3884C39.2085 24.5258 39.3072 24.6062 39.3741 24.6374C39.4479 24.6744 39.5242 24.738 39.6319 24.7474C39.7475 24.7524 39.831 24.7563 39.8865 24.7563H40.2489L40.4665 24.0415H40.3235C40.2415 24.0415 40.1002 24.0277 40.0761 24.002C40.0521 23.9707 40.0521 23.9226 40.0391 23.8494L39.9242 23.1144H39.4534L39.6599 22.8687H40.8191L40.9974 22.2854H39.9242L40.0914 21.752H41.1613L41.3598 21.0941H38.1698L37.9746 21.752ZM28.2931 24.0117L28.5607 23.1217H29.6603L29.8612 22.4597H28.7605L28.9286 21.9118H30.0041L30.2034 21.2708H27.5123L27.3171 21.9118H27.9285L27.7654 22.4597H27.1524L26.9492 23.133H27.5604L27.2038 24.3105C27.1557 24.4664 27.2264 24.5258 27.2712 24.5982C27.3171 24.6687 27.3636 24.7154 27.4681 24.742C27.5758 24.766 27.6496 24.7804 27.75 24.7804H28.9896L29.2105 24.0471L28.661 24.1225C28.5549 24.1225 28.261 24.1098 28.2931 24.0117ZM28.4192 19.7509L28.1406 20.2546C28.0809 20.3646 28.0273 20.4329 27.9789 20.4643C27.9364 20.4909 27.8521 20.502 27.7299 20.502H27.5845L27.3902 21.1463H27.873C28.1052 21.1463 28.2835 21.0611 28.3686 21.0185C28.4602 20.9696 28.4842 20.9976 28.555 20.9293L28.718 20.788H30.2258L30.4259 20.1172H29.3222L29.5149 19.7509H28.4192ZM30.6452 24.0246C30.6195 23.9876 30.638 23.9224 30.6773 23.7867L31.0894 22.4226H32.5555C32.7692 22.4196 32.9234 22.4171 33.0238 22.4099C33.1315 22.3986 33.2487 22.3601 33.3764 22.291C33.5083 22.2186 33.5757 22.1423 33.6327 22.0547C33.6962 21.9673 33.7982 21.7761 33.8858 21.4812L34.4039 19.755L32.8825 19.7638C32.8825 19.7638 32.414 19.8329 32.2078 19.9092C31.9996 19.9944 31.7023 20.2321 31.7023 20.2321L31.8396 19.7589H30.8998L29.5841 24.1225C29.5374 24.292 29.5062 24.415 29.499 24.4888C29.4965 24.5684 29.5993 24.6471 29.666 24.7066C29.7447 24.766 29.8611 24.7563 29.9728 24.766C30.0902 24.7748 30.2572 24.7804 30.4877 24.7804H31.21L31.4316 24.0318L30.7851 24.0929C30.716 24.0929 30.666 24.0559 30.6452 24.0246ZM31.3553 21.5013H32.8952L32.7973 21.8082C32.7836 21.8154 32.7507 21.793 32.594 21.8115H31.2605L31.3553 21.5013ZM31.6638 20.4723H33.2167L33.105 20.8418C33.105 20.8418 32.3731 20.8346 32.2559 20.8562C31.7401 20.9455 31.4388 21.221 31.4388 21.221L31.6638 20.4723ZM32.8318 22.8356C32.8191 22.8815 32.7989 22.9095 32.7707 22.9304C32.7395 22.9506 32.6889 22.9578 32.6134 22.9578H32.394L32.4069 22.5841H31.4943L31.4573 24.4109C31.4558 24.5427 31.4686 24.619 31.565 24.6801C31.6615 24.7564 31.9586 24.7661 32.3586 24.7661H32.9305L33.137 24.0823L32.6391 24.1096L32.4736 24.1193C32.451 24.1096 32.4294 24.1008 32.4053 24.0767C32.3843 24.056 32.349 24.0687 32.3547 23.9369L32.3586 23.4686L32.8808 23.447C33.1627 23.447 33.2832 23.3553 33.386 23.2679C33.4841 23.1842 33.5162 23.088 33.5532 22.9578L33.6408 22.5432H32.9233L32.8318 22.8356Z" fill="#FEFEFE"/>
</svg>
