<svg width="60" height="38" viewBox="0 0 60 38" fill="none" xmlns="http://www.w3.org/2000/svg">
<rect width="60" height="38" rx="8" fill="#EFFFFB"/>
<path fill-rule="evenodd" clip-rule="evenodd" d="M21.7945 8.11188L17.0196 18.1415C17.0015 18.1788 16.9957 18.221 17.0032 18.2618C17.0107 18.3026 17.0311 18.3399 17.0613 18.3684L29.9571 30.7257C29.9937 30.7608 30.0425 30.7804 30.0933 30.7804C30.144 30.7804 30.1928 30.7608 30.2295 30.7257L43.1253 18.3691C43.1555 18.3407 43.1759 18.3034 43.1834 18.2626C43.1909 18.2218 43.1851 18.1796 43.1669 18.1423L38.392 8.11266C38.3766 8.07897 38.3519 8.05044 38.3207 8.03046C38.2895 8.01049 38.2532 7.99992 38.2161 8.00001H21.972C21.9347 7.99955 21.8982 8.00987 21.8667 8.02972C21.8352 8.04957 21.8101 8.0781 21.7945 8.11188Z" fill="#50AF95"/>
<path fill-rule="evenodd" clip-rule="evenodd" d="M31.7516 19.1722C31.6591 19.1791 31.1807 19.2077 30.1137 19.2077C29.2651 19.2077 28.6625 19.1822 28.4511 19.1722C25.1714 19.0279 22.7234 18.457 22.7234 17.7734C22.7234 17.0899 25.1714 16.5197 28.4511 16.3731V18.6036C28.6656 18.619 29.2797 18.6553 30.1284 18.6553C31.1468 18.6553 31.6567 18.6128 31.7485 18.6044V16.3747C35.0213 16.5205 37.4639 17.0914 37.4639 17.7734C37.4639 18.4555 35.0221 19.0264 31.7485 19.1714L31.7516 19.1722ZM31.7516 16.144V14.1481H36.319V11.1045H23.8838V14.1481H28.4503V16.1432C24.7386 16.3137 21.9473 17.049 21.9473 17.9301C21.9473 18.8111 24.7386 19.5456 28.4503 19.7169V26.1127H31.7509V19.7146C35.4541 19.5441 38.2408 18.8096 38.2408 17.9293C38.2408 17.049 35.4564 16.3145 31.7509 16.1432L31.7516 16.144Z" fill="white"/>
</svg>
