<svg width="60" height="38" viewBox="0 0 60 38" fill="none" xmlns="http://www.w3.org/2000/svg">
<rect width="60" height="38" rx="8" fill="#EBF3FA"/>
<path d="M12.4331 11.2773H6.06515L6 11.5866C10.9674 12.8569 14.2572 15.9188 15.6089 19.5991L14.2246 12.5641C13.9967 11.5864 13.2963 11.3096 12.4331 11.2773Z" fill="#FAA61A"/>
<path d="M19.9086 11.2773L16.0324 21.7154L15.6089 19.5984C14.8922 17.1557 12.6448 14.5018 10.1367 13.1822L13.6871 26.5683H17.8726L24.0938 11.2773H19.9086Z" fill="#00579F"/>
<path d="M46.7818 21.1617C47.1078 20.2824 48.362 16.8789 48.362 16.8789C48.3456 16.9116 48.6873 15.9833 48.8828 15.4134L49.1594 16.7324C49.1594 16.7324 49.9089 20.3964 50.0716 21.1617C49.4531 21.1617 47.5636 21.1617 46.7818 21.1617ZM51.6674 11.2773H48.6059C47.6618 11.2773 46.9446 11.5539 46.5372 12.5474L40.6582 26.5843H44.8112C44.8112 26.5843 45.4949 24.6951 45.6419 24.2882C46.0974 24.2882 50.1374 24.2882 50.7235 24.2882C50.8372 24.8256 51.1958 26.5843 51.1958 26.5843H54.8605L51.6674 11.2773Z" fill="#00579F"/>
<path d="M41.5193 11.6517C40.7386 11.342 39.5004 11 37.9693 11C34.0607 11 31.3083 13.0843 31.2914 16.0642C31.2589 18.2627 33.262 19.4838 34.7602 20.2169C36.2915 20.966 36.812 21.4549 36.812 22.1226C36.7964 23.1481 35.5747 23.6208 34.4351 23.6208C32.8549 23.6208 32.0082 23.3771 30.7215 22.8066L30.2003 22.562L29.6465 25.9981C30.5748 26.421 32.2851 26.7963 34.0607 26.8128C38.2137 26.8128 40.9174 24.7608 40.9494 21.5852C40.9652 19.8427 39.9075 18.5075 37.6271 17.4165C36.2428 16.7161 35.395 16.2438 35.395 15.5272C35.4113 14.8757 36.1121 14.2084 37.6747 14.2084C38.9614 14.1758 39.9068 14.485 40.623 14.7946L40.981 14.9571L41.5193 11.6517Z" fill="#00579F"/>
<path d="M27.1728 26.5845H23.2148L25.6904 11.2773H29.6482L27.1728 26.5845Z" fill="#00579F"/>
</svg>
