<svg width="60" height="38" viewBox="0 0 60 38" fill="none" xmlns="http://www.w3.org/2000/svg">
<g clip-path="url(#clip0_1702_7675)">
<rect width="60" height="38" rx="8" fill="#FFF7CC"/>
<path d="M61 28.4219H-1V10.1768H61V28.4219Z" fill="#13110C"/>
<path d="M21.0019 13.6689C19.567 13.6689 18.7299 14.2711 18.7299 15.2947C18.7299 15.9571 19.0289 16.4388 19.7463 16.6195L21.1214 17.041C21.3008 17.1012 21.4802 17.2216 21.4802 17.4023C21.4802 17.6431 21.3008 17.8238 21.0019 17.8238C20.8225 17.8238 20.7029 17.7636 20.6431 17.6431C20.5834 17.5227 20.5236 17.4023 20.5236 17.2818H18.6104C18.6104 18.6066 19.7463 18.9679 20.9421 18.9679C22.377 18.9679 23.3336 18.4259 23.3336 17.2216C23.3336 16.6195 23.0347 16.1378 22.4368 15.8969C21.9585 15.656 21.241 15.5356 20.8823 15.4152C20.7029 15.355 20.5833 15.2947 20.5833 15.1141C20.5833 14.9335 20.7029 14.813 21.0617 14.813C21.3008 14.813 21.4802 14.9335 21.4802 15.2345H23.2738C23.1542 14.0302 22.2574 13.6689 21.0019 13.6689ZM48.2651 13.6689V24.8087H48.863V13.6689H48.2651ZM54.5429 13.7292C54.1841 13.7292 53.8852 14.0302 53.8852 14.3915C53.8852 14.7528 54.1841 15.0539 54.5429 15.0539C54.9016 15.0539 55.2005 14.7528 55.2005 14.3915C55.2603 14.0302 54.9614 13.7292 54.5429 13.7292ZM4.91895 13.7894L5.99512 18.8474H8.14749L8.62578 15.5958L9.10409 18.8474H11.2564L12.3326 13.7894H10.539L10.1205 16.9205L9.64218 13.7894H7.6094L7.13108 16.9205L6.65279 13.7894H4.91895ZM13.4686 13.7894V18.8474H17.295V17.5227H15.322V16.9808H17.0559V15.656H15.322V15.1141H17.2352V13.7894H13.4686ZM24.4696 13.7894V15.1141H25.7251V18.7872H27.6981V15.1141H28.9536V13.7894H24.4696ZM30.2092 13.7894V18.8474H34.0954V17.5227H32.1224V16.9808H33.8563V15.656H32.1224V15.1141H34.0356V13.7894H30.2092ZM35.5303 13.7894V18.8474H37.4435V17.041H37.6827C37.9816 17.041 38.1012 17.1614 38.161 17.4023C38.2208 17.8238 38.2806 18.4861 38.4001 18.8474H40.3133C40.0742 18.0646 40.134 17.4023 40.0144 16.9205C39.8948 16.5593 39.6557 16.3184 39.1774 16.2582C39.8948 16.0775 40.1938 15.656 40.1938 15.0539C40.1938 14.0904 39.5361 13.7894 38.5197 13.7894H35.5303ZM41.7482 13.7894V18.8474H43.3625V15.7765L44.4387 18.8474H46.8302V13.7894H45.2159V16.8001L44.1398 13.7894H41.7482ZM52.7492 13.7894V24.8087H53.3471V13.7894H52.7492ZM54.5429 13.7894C54.8418 13.7894 55.0809 14.0302 55.0809 14.3915C55.0809 14.6926 54.8418 14.9937 54.5429 14.9937C54.2439 14.9937 54.0047 14.7528 54.0047 14.3915C54.0047 14.0904 54.2439 13.7894 54.5429 13.7894ZM54.3037 14.0302V14.7528H54.4233V14.4517H54.6026L54.782 14.813H54.9016L54.6624 14.4517C54.782 14.4517 54.9016 14.3915 54.9016 14.2711C54.9016 14.1507 54.8418 14.0904 54.6624 14.0904H54.3037V14.0302ZM54.4233 14.0904H54.6026C54.7222 14.0904 54.782 14.0904 54.782 14.2109C54.782 14.3915 54.6026 14.3313 54.5429 14.3313H54.4233V14.0904ZM37.5033 14.9335H37.6827C38.0414 14.9335 38.3403 14.9937 38.3403 15.355C38.3403 15.7163 38.0414 15.8969 37.6827 15.8969H37.5033V14.9335ZM37.6827 19.6904C35.9488 19.6904 35.1118 20.7743 35.1118 22.3399C35.1118 23.9055 35.9488 24.9893 37.6827 24.9893C39.4165 24.9893 40.2535 23.9055 40.2535 22.3399C40.2535 20.7743 39.4165 19.6904 37.6827 19.6904ZM18.5506 19.8109V23.1829C18.5506 24.3872 19.3876 24.9893 20.9421 24.9893C22.4368 24.9893 23.3336 24.3872 23.3336 23.1829V19.8109H21.3606V23.0625C21.3606 23.484 21.1812 23.6044 20.9421 23.6044C20.7029 23.6044 20.5236 23.4238 20.5236 23.0625V19.8109H18.5506ZM24.9479 19.8109V24.8689H26.5621V21.798L27.6383 24.8689H30.0298V19.8109H28.4156V22.8818L27.3394 19.8109H24.9479ZM31.6441 19.8109V24.8689H33.6171V19.8109H31.6441ZM41.7482 19.8109V24.8689H43.3625V21.798L44.4387 24.8689H46.8302V19.8109H45.2159V22.8818L44.1398 19.8109H41.7482ZM37.6827 21.0152C37.9816 21.0152 38.2208 21.1958 38.2208 22.3399C38.2208 23.484 37.9816 23.6646 37.6827 23.6646C37.3837 23.6646 37.1446 23.484 37.1446 22.3399C37.1446 21.1958 37.3837 21.0152 37.6827 21.0152Z" fill="#FFDF27"/>
</g>
<defs>
<clipPath id="clip0_1702_7675">
<rect width="60" height="38" rx="8" fill="white"/>
</clipPath>
</defs>
</svg>
