<svg width="60" height="38" viewBox="0 0 60 38" fill="none" xmlns="http://www.w3.org/2000/svg">
<rect width="60" height="38" rx="8" fill="#F7F3FC"/>
<g clip-path="url(#clip0_1702_7617)">
<path d="M34.058 9C28.5214 9 24.1172 13.4937 24.1172 19C24.1172 24.5696 28.5843 29 34.058 29C39.5317 29 43.9988 24.5063 43.9988 19C43.9988 13.4937 39.5317 9 34.058 9ZM34.058 22.7342C32.0447 22.7342 30.3459 21.0253 30.3459 19C30.3459 16.9747 32.0447 15.2658 34.058 15.2658C36.0713 15.2658 37.7701 16.9747 37.7701 19C37.7073 21.0253 36.0713 22.7342 34.058 22.7342Z" fill="#8B3FFD"/>
<path d="M24.0533 11.9111V26.4681H20.53L16 11.9111H24.0533Z" fill="#8B3FFD"/>
</g>
<defs>
<clipPath id="clip0_1702_7617">
<rect width="28" height="20" fill="white" transform="translate(16 9)"/>
</clipPath>
</defs>
</svg>
