<svg width="28" height="28" viewBox="0 0 28 28" fill="none" xmlns="http://www.w3.org/2000/svg">
<path fill-rule="evenodd" clip-rule="evenodd" d="M2.46814 3.66323C2.53878 3.25509 2.92691 2.98148 3.33506 3.05213L5.76173 3.47213C6.09804 3.53033 6.35264 3.80828 6.38119 4.14841L6.66519 7.53187L8.73621 7.53271C10.3641 7.53342 12.5355 7.53448 14.7092 7.53587C16.8829 7.53725 19.0591 7.53897 20.6965 7.54099C21.5152 7.542 22.1995 7.54309 22.6816 7.54426C22.9225 7.54484 23.1134 7.54544 23.2455 7.54607C23.3114 7.54638 23.3636 7.5467 23.4003 7.54703L23.4468 7.54759L23.4679 7.54807L23.4858 7.54879L23.5046 7.54994C23.5134 7.55064 23.5382 7.55317 23.5544 7.55528L23.5575 7.55571C24.821 7.73868 25.6994 8.91202 25.5164 10.1775L24.4094 17.8273C24.4094 17.8277 24.4093 17.8281 24.4093 17.8286C24.2078 19.2327 23.0042 20.2775 21.5837 20.2748H8.85843C7.3712 20.2789 6.13206 19.1408 6.0099 17.6584C6.00988 17.6582 6.00991 17.6586 6.0099 17.6584L4.93492 4.85132L3.07925 4.53015C2.6711 4.45951 2.3975 4.07138 2.46814 3.66323ZM6.7911 9.03192L7.5048 17.5349C7.56259 18.2381 8.14962 18.7771 8.85493 18.7748L8.85732 18.7748L21.5845 18.7748L21.5862 18.7748C22.2579 18.7763 22.8292 18.2818 22.9245 17.615L24.0319 9.9628C24.0943 9.53124 23.8052 9.12938 23.3821 9.04694L23.2384 9.04605C23.1081 9.04543 22.9186 9.04483 22.6779 9.04425C22.1968 9.04309 21.5132 9.042 20.6947 9.04099C19.0577 9.03897 16.8819 9.03725 14.7083 9.03587C12.5347 9.03448 10.3634 9.03342 8.73555 9.03271L6.7911 9.03192Z" fill="#1E1E1E"/>
<path fill-rule="evenodd" clip-rule="evenodd" d="M15.7266 12.5928C15.7266 12.1786 16.0623 11.8428 16.4766 11.8428H19.7117C20.1259 11.8428 20.4617 12.1786 20.4617 12.5928C20.4617 13.007 20.1259 13.3428 19.7117 13.3428H16.4766C16.0623 13.3428 15.7266 13.007 15.7266 12.5928Z" fill="#1E1E1E"/>
<path fill-rule="evenodd" clip-rule="evenodd" d="M8.3456 23.5693C8.69677 23.5693 8.98027 23.854 8.98027 24.204C8.98027 24.5552 8.69677 24.8398 8.3456 24.8398C7.99444 24.8398 7.71094 24.5552 7.71094 24.204C7.71094 23.854 7.99444 23.5693 8.3456 23.5693Z" fill="#1E1E1E"/>
<path fill-rule="evenodd" clip-rule="evenodd" d="M8.3456 24.3193C8.40955 24.3193 8.46094 24.2673 8.46094 24.204C8.46094 24.1428 8.41044 24.0898 8.3456 24.0898C8.28076 24.0898 8.23027 24.1428 8.23027 24.204C8.23027 24.2673 8.28166 24.3193 8.3456 24.3193ZM6.96094 24.204C6.96094 23.4407 7.57933 22.8193 8.3456 22.8193C9.11188 22.8193 9.73027 23.4407 9.73027 24.204C9.73027 24.9676 9.11278 25.5898 8.3456 25.5898C7.57843 25.5898 6.96094 24.9676 6.96094 24.204Z" fill="#1E1E1E"/>
<path fill-rule="evenodd" clip-rule="evenodd" d="M21.5058 23.5693C21.8569 23.5693 22.1416 23.854 22.1416 24.204C22.1416 24.5552 21.8569 24.8398 21.5058 24.8398C21.1546 24.8398 20.8711 24.5552 20.8711 24.204C20.8711 23.854 21.1546 23.5693 21.5058 23.5693Z" fill="#1E1E1E"/>
<path fill-rule="evenodd" clip-rule="evenodd" d="M21.5058 24.3193C21.5697 24.3193 21.6211 24.2673 21.6211 24.204C21.6211 24.1428 21.5706 24.0898 21.5058 24.0898C21.4427 24.0898 21.3916 24.141 21.3916 24.204C21.3916 24.2691 21.4436 24.3193 21.5058 24.3193ZM20.1211 24.204C20.1211 23.4407 20.7395 22.8193 21.5058 22.8193C22.2702 22.8193 22.8916 23.4389 22.8916 24.204C22.8916 24.9694 22.2711 25.5898 21.5058 25.5898C20.7386 25.5898 20.1211 24.9676 20.1211 24.204Z" fill="#1E1E1E"/>
</svg>
