<svg width="15" height="16" viewBox="0 0 15 16" fill="none" xmlns="http://www.w3.org/2000/svg">
<path fill-rule="evenodd" clip-rule="evenodd" d="M13.2562 5.43688V10.5313C13.2562 12.4188 12.075 13.75 10.1875 13.75H4.78125C2.89375 13.75 1.71875 12.4188 1.71875 10.5313V5.43688C1.71875 3.54938 2.9 2.21875 4.78125 2.21875H10.1875C12.075 2.21875 13.2562 3.54938 13.2562 5.43688Z" stroke="#303030" stroke-linecap="round" stroke-linejoin="round"/>
<path d="M3.30078 10.7694L4.25578 9.76132C4.58766 9.40944 5.14078 9.39257 5.49328 9.72382C5.50391 9.73444 6.07891 10.3188 6.07891 10.3188C6.42578 10.6719 6.99266 10.6776 7.34578 10.3313C7.36891 10.3088 8.80453 8.56757 8.80453 8.56757C9.17453 8.11819 9.83891 8.05382 10.2889 8.42444C10.3189 8.44944 11.6752 9.84132 11.6752 9.84132" stroke="#303030" stroke-linecap="round" stroke-linejoin="round"/>
<path fill-rule="evenodd" clip-rule="evenodd" d="M6.44641 6.20758C6.44641 6.8132 5.95578 7.30383 5.35016 7.30383C4.74453 7.30383 4.25391 6.8132 4.25391 6.20758C4.25391 5.60195 4.74453 5.11133 5.35016 5.11133C5.95578 5.11195 6.44641 5.60195 6.44641 6.20758Z" stroke="#303030" stroke-linecap="round" stroke-linejoin="round"/>
</svg>
