<svg width="24" height="24" viewBox="0 0 24 24" fill="none" xmlns="http://www.w3.org/2000/svg">
<path fill-rule="evenodd" clip-rule="evenodd" d="M21.21 7.899V16.05C21.21 19.07 19.32 21.2 16.3 21.2H7.65C4.63 21.2 2.75 19.07 2.75 16.05V7.899C2.75 4.879 4.64 2.75 7.65 2.75H16.3C19.32 2.75 21.21 4.879 21.21 7.899Z" stroke="#303030" stroke-linecap="round" stroke-linejoin="round"/>
<path d="M5.28125 16.4313L6.80925 14.8183C7.34025 14.2553 8.22525 14.2283 8.78925 14.7583C8.80625 14.7753 9.72625 15.7103 9.72625 15.7103C10.2813 16.2753 11.1883 16.2843 11.7533 15.7303C11.7903 15.6943 14.0872 12.9083 14.0872 12.9083C14.6792 12.1893 15.7422 12.0863 16.4622 12.6793C16.5102 12.7193 18.6803 14.9463 18.6803 14.9463" stroke="#303030" stroke-linecap="round" stroke-linejoin="round"/>
<path fill-rule="evenodd" clip-rule="evenodd" d="M10.3146 9.13193C10.3146 10.1009 9.52964 10.8859 8.56064 10.8859C7.59164 10.8859 6.80664 10.1009 6.80664 9.13193C6.80664 8.16293 7.59164 7.37793 8.56064 7.37793C9.52964 7.37893 10.3146 8.16293 10.3146 9.13193Z" stroke="#303030" stroke-linecap="round" stroke-linejoin="round"/>
</svg>
