<svg width="28" height="28" viewBox="0 0 28 28" fill="none" xmlns="http://www.w3.org/2000/svg">
<path fill-rule="evenodd" clip-rule="evenodd" d="M13.8857 5.37762C12.3054 4.26943 10.2559 3.94786 8.39675 4.54782C4.79965 5.70662 3.40157 9.66554 4.56622 13.3022C5.43302 15.9998 7.65161 18.4518 9.87503 20.3426C11.8368 22.011 13.7287 23.181 14.5002 23.6336C15.2751 23.1764 17.181 21.9922 19.1507 20.3159C21.383 18.4161 23.5972 15.9674 24.4341 13.3064L24.4353 13.3028C25.5985 9.6677 24.1935 5.7076 20.5953 4.5481C18.74 3.95288 16.6155 4.30453 15.1209 5.37194C14.7536 5.63425 14.2582 5.63888 13.8857 5.37762ZM14.4976 3.98191C12.5731 2.74238 10.1503 2.4059 7.93645 3.12019L14.4976 3.98191ZM14.4976 3.98191C16.358 2.7719 18.85 2.41271 21.0539 3.11993C25.661 4.60409 27.2015 9.57719 25.8645 13.7582C24.8973 16.8315 22.4153 19.5073 20.1228 21.4582C17.8109 23.4258 15.5902 24.7405 15.0113 25.0716C14.6927 25.2538 14.3126 25.2545 13.9932 25.0731C13.4155 24.7449 11.2089 23.446 8.90329 21.4853C6.61522 19.5395 4.1348 16.8631 3.13804 13.7608C1.79927 9.58106 3.32762 4.60515 7.93645 3.12019" fill="#1E1E1E"/>
<path fill-rule="evenodd" clip-rule="evenodd" d="M18.4546 7.58585C18.582 7.19173 19.0048 6.97555 19.3989 7.10299C20.9356 7.59989 22.0215 8.97165 22.1522 10.5816C22.1857 10.9944 21.8782 11.3563 21.4654 11.3898C21.0525 11.4233 20.6906 11.1158 20.6571 10.703C20.5755 9.69723 19.8974 8.84066 18.9374 8.53023C18.5433 8.40278 18.3271 7.97997 18.4546 7.58585Z" fill="#1E1E1E"/>
</svg>
