<svg width="20" height="20" viewBox="0 0 20 20" fill="none" xmlns="http://www.w3.org/2000/svg">
<path fill-rule="evenodd" clip-rule="evenodd" d="M7.16797 8.74977C7.16797 7.1845 8.43645 5.91602 10.0017 5.91602C11.5664 5.91602 12.8346 7.1847 12.8346 8.74977C12.8346 10.3142 11.5662 11.5827 10.0017 11.5827C8.43665 11.5827 7.16797 10.3144 7.16797 8.74977ZM10.0017 7.41602C9.26488 7.41602 8.66797 8.01293 8.66797 8.74977C8.66797 9.48557 9.26468 10.0827 10.0017 10.0827C10.7377 10.0827 11.3346 9.48577 11.3346 8.74977C11.3346 8.01273 10.7375 7.41602 10.0017 7.41602Z" fill="#DB0053"/>
<path fill-rule="evenodd" clip-rule="evenodd" d="M9.99959 3.25C6.96784 3.25 4.5 5.73035 4.5 8.80274C4.5 10.7514 5.66745 12.7515 7.06103 14.3205C7.74666 15.0925 8.45846 15.7274 9.04778 16.1633C9.34327 16.3819 9.59671 16.5421 9.79157 16.6439C9.89641 16.6986 9.96391 16.7256 9.9996 16.7386C10.0353 16.7256 10.1028 16.6986 10.2077 16.6439C10.4026 16.5421 10.656 16.3819 10.9516 16.1633C11.541 15.7273 12.2529 15.0925 12.9386 14.3205C14.3324 12.7514 15.5 10.7514 15.5 8.80274C15.5 5.73047 13.0315 3.25 9.99959 3.25ZM3 8.80274C3 4.91405 6.12733 1.75 9.99959 1.75C13.8717 1.75 17 4.91392 17 8.80274C17 11.3 15.5418 13.6486 14.06 15.3167C13.308 16.1633 12.5197 16.8691 11.8435 17.3692C11.5063 17.6187 11.1856 17.8253 10.9021 17.9734C10.6551 18.1025 10.3221 18.25 9.99959 18.25C9.6771 18.25 9.3441 18.1025 9.09705 17.9734C8.81359 17.8253 8.49296 17.6187 8.15573 17.3692C7.47962 16.8691 6.69144 16.1632 5.93951 15.3166C4.45798 13.6485 3 11.3 3 8.80274Z" fill="#DB0053"/>
</svg>
