<svg width="28" height="28" viewBox="0 0 28 28" fill="none" xmlns="http://www.w3.org/2000/svg">
<path fill-rule="evenodd" clip-rule="evenodd" d="M7.47995 18.437C9.44241 17.6154 11.7409 17.1533 13.9826 17.1533C16.2584 17.1533 18.598 17.5466 20.5878 18.3361C22.5661 19.1211 24.2821 20.3327 25.1737 22.0265C25.6348 22.9024 25.431 23.7928 24.8956 24.4154C24.383 25.0115 23.5729 25.3707 22.7252 25.3698L5.23188 25.3505C4.38557 25.3496 3.57788 24.9877 3.07869 24.3858C2.55244 23.7512 2.38748 22.8525 2.90267 22.0001C3.83476 20.4578 5.53045 19.2531 7.47995 18.437ZM8.0592 19.8206C6.27176 20.5689 4.89319 21.6065 4.18642 22.7759C4.03557 23.0255 4.07087 23.2324 4.23329 23.4282C4.42279 23.6567 4.7922 23.85 5.23354 23.8505L22.7269 23.8698C23.1689 23.8703 23.5512 23.6782 23.7583 23.4373C23.9428 23.2229 23.9861 22.9906 23.8464 22.7253C23.185 21.4688 21.8336 20.4442 20.0346 19.7304C18.2471 19.0212 16.0995 18.6533 13.9826 18.6533C11.9348 18.6533 9.83367 19.0777 8.0592 19.8206Z" fill="#1E1E1E"/>
<path fill-rule="evenodd" clip-rule="evenodd" d="M7.87113 8.64304C7.87181 5.2681 10.6086 2.5332 13.9833 2.5332C17.3587 2.5332 20.0945 5.26899 20.0945 8.64432C20.0945 12.0194 17.3589 14.7565 13.9833 14.7565H13.9456L13.943 14.7565C10.5791 14.7451 7.86041 12.0076 7.87113 8.64304ZM13.9833 4.0332C11.4362 4.0332 9.37113 6.09762 9.37113 8.64432V8.64686H9.37112C9.36253 11.1835 11.4118 13.2472 13.9468 13.2565H13.9833C16.53 13.2565 18.5945 11.1914 18.5945 8.64432C18.5945 6.09742 16.5302 4.0332 13.9833 4.0332Z" fill="#1E1E1E"/>
</svg>
