<svg width="72" height="73" viewBox="0 0 72 73" fill="none" xmlns="http://www.w3.org/2000/svg">
<path d="M59.1429 30.2853C59.1429 46.6171 45.9033 59.8567 29.5714 59.8567C13.2396 59.8567 0 46.6171 0 30.2853C0 13.9534 13.2396 0.713867 29.5714 0.713867C45.9033 0.713867 59.1429 13.9534 59.1429 30.2853Z" fill="#C4E7E7"/>
<path fill-rule="evenodd" clip-rule="evenodd" d="M44.2735 26.7337C33.7911 27.1348 25.6187 35.9577 26.0198 46.44C26.2632 52.799 29.6044 58.3082 34.5411 61.5707L33.0525 63.8232C27.4211 60.1016 23.5998 53.8084 23.3218 46.5433C22.8636 34.5708 32.1978 24.4938 44.1702 24.0356C50.1928 23.8052 55.7379 26.0543 59.8166 29.8679L57.9726 31.8401C54.3986 28.4983 49.5471 26.5318 44.2735 26.7337ZM55.7615 61.3679C60.9441 57.7974 64.2381 51.7357 63.9799 44.9874L66.6779 44.8841C66.973 52.5948 63.2053 59.5183 57.2934 63.5913C54.0212 65.8457 50.0906 67.2287 45.8294 67.3918L45.8036 67.3927L45.7778 67.3927C45.0276 67.3927 44.4327 67.3907 43.6122 67.3538L43.7334 64.6565C44.4819 64.6901 45.0231 64.6927 45.7517 64.6927C49.4765 64.5453 52.905 63.3359 55.7615 61.3679Z" fill="#5E7575"/>
<path fill-rule="evenodd" clip-rule="evenodd" d="M44.0823 28.5613C43.1557 30.0059 42.2687 32.19 41.5447 34.945C40.7589 37.9352 40.1856 41.5197 39.9459 45.4021C39.6058 50.9108 40.0071 55.8877 40.8972 59.4668C41.3443 61.2645 41.8961 62.6326 42.4835 63.5313C43.0877 64.4558 43.569 64.6559 43.8301 64.672C44.0912 64.6881 44.5934 64.5487 45.3068 63.7056C46.0002 62.886 46.7161 61.5961 47.3809 59.8671C48.7046 56.4247 49.715 51.5349 50.0551 46.0262C50.3953 40.5175 49.994 35.5407 49.1038 31.9615C48.6568 30.1639 48.105 28.7957 47.5176 27.897C46.9134 26.9726 46.4321 26.7725 46.171 26.7563C45.8186 26.7346 45.0698 27.0217 44.0823 28.5613ZM41.8096 27.1036C42.8864 25.4247 44.4024 23.942 46.3374 24.0615C47.8442 24.1545 48.9769 25.1947 49.7777 26.4198C50.5953 27.6707 51.2394 29.3614 51.724 31.3098C52.6972 35.2228 53.1023 40.487 52.75 46.1926C52.3977 51.8982 51.3482 57.0726 49.9011 60.8362C49.1805 62.7102 48.3332 64.3088 47.368 65.4496C46.4226 66.5669 45.1705 67.4599 43.6637 67.3669C42.1569 67.2738 41.0241 66.2336 40.2234 65.0085C39.4058 63.7576 38.7616 62.0669 38.277 60.1185C37.3039 56.2055 36.8988 50.9413 37.251 45.2357C37.5002 41.1995 38.0977 37.4389 38.9334 34.2588C39.695 31.3605 40.6718 28.8775 41.8096 27.1036Z" fill="#5E7575"/>
<path fill-rule="evenodd" clip-rule="evenodd" d="M59.1339 48.2058C55.6811 49.5023 50.7836 50.4741 45.2724 50.7708C39.7612 51.0675 34.7876 50.627 31.2156 49.7087C29.4215 49.2474 28.0578 48.6849 27.1638 48.0904C26.2441 47.4789 26.0478 46.9961 26.0337 46.7349L23.3376 46.88C23.4187 48.3875 24.45 49.5284 25.6688 50.3388C26.9132 51.1662 28.5987 51.8237 30.5433 52.3236C34.4484 53.3276 39.7093 53.7742 45.4175 53.4669C51.1257 53.1596 56.3082 52.1509 60.0831 50.7335C61.9627 50.0277 63.5679 49.193 64.7163 48.2368C65.841 47.3003 66.7439 46.0552 66.6627 44.5478C66.5816 43.0403 65.5503 41.8994 64.3315 41.089C63.0871 40.2616 61.4016 39.6041 59.457 39.1042C55.5519 38.1002 50.291 37.6536 44.5828 37.9609C40.0532 38.2047 35.8641 38.8896 32.4489 39.8651L33.1904 42.4613C36.3821 41.5496 40.3676 40.8917 44.7279 40.657C50.2391 40.3603 55.2127 40.8008 58.7847 41.7191C60.5788 42.1804 61.9425 42.7429 62.8366 43.3373C63.7563 43.9489 63.9526 44.4317 63.9666 44.6929C63.9807 44.9541 63.8373 45.4552 62.9886 46.1619C62.1636 46.8489 60.8681 47.5546 59.1339 48.2058Z" fill="#5E7575"/>
</svg>
