<svg width="72" height="72" viewBox="0 0 72 72" fill="none" xmlns="http://www.w3.org/2000/svg">
<path d="M59.1429 29.9289C59.1429 46.2607 45.9033 59.5003 29.5714 59.5003C13.2396 59.5003 0 46.2607 0 29.9289C0 13.597 13.2396 0.357422 29.5714 0.357422C45.9033 0.357422 59.1429 13.597 59.1429 29.9289Z" fill="#C4E7E7"/>
<path fill-rule="evenodd" clip-rule="evenodd" d="M22.2285 35.5137H67.7298L67.2494 46.3177H65.4214C64.9333 53.7647 65.0332 58.6854 66.077 67.7406L66.2504 69.2452H25.7872V66.5452H41.097V46.3177H27.9416C28.3576 52.5152 28.1815 56.9888 27.6063 63.2273L24.9177 62.9795C25.4884 56.7897 25.6554 52.4359 25.2354 46.3177H23.0291L22.2285 35.5137ZM43.797 46.3177V66.5452H46.9421V46.3177H43.797ZM46.9421 43.6177H43.797V38.2137H46.9421V43.6177ZM49.6421 46.3177H59.5853V43.6177H49.6421V38.2137H64.9071L64.6668 43.6177H62.9035L62.8141 44.8718C62.2514 52.7716 62.2706 57.7815 63.2259 66.5452H49.6421V46.3177ZM41.097 38.2137V43.6177H25.5364L25.136 38.2137H41.097Z" fill="#5E7575"/>
<path fill-rule="evenodd" clip-rule="evenodd" d="M66.0256 21.5405L67.4429 22.9478L67.1755 29.0579L64.4781 28.9399L64.5937 26.2985L58.29 32.6022L56.3808 30.693L62.6586 24.4152L60.0937 24.5456L59.9566 21.8491L66.0256 21.5405Z" fill="#5E7575"/>
</svg>
