<svg width="72" height="72" viewBox="0 0 72 72" fill="none" xmlns="http://www.w3.org/2000/svg">
<path d="M59.1429 29.5714C59.1429 45.9033 45.9033 59.1429 29.5714 59.1429C13.2396 59.1429 0 45.9033 0 29.5714C0 13.2396 13.2396 0 29.5714 0C45.9033 0 59.1429 13.2396 59.1429 29.5714Z" fill="#C4E7E7"/>
<path fill-rule="evenodd" clip-rule="evenodd" d="M51.8005 26.6075C41.557 23.8628 29.6399 30.0701 26.9363 40.16L24.3283 39.4612C27.4584 27.7797 40.9715 20.9107 52.4993 23.9995C60.1364 26.0459 64.5304 31.9058 66.2704 38.7639L68.5878 34.0483L71.011 35.2391L66.8658 43.6741L64.9306 44.2184L57.1471 39.2768L58.5942 36.9974L63.8698 40.3467C62.4777 33.7715 58.5619 28.4193 51.8005 26.6075ZM38.9249 63.7011C49.1538 66.4419 61.0416 60.1276 63.7489 50.0239L66.3569 50.7227C63.2306 62.3904 49.7686 69.4019 38.2261 66.3091C30.2796 64.1798 25.7868 57.8333 24.207 50.5893L21.7785 54.4487L19.4932 53.0107L23.8597 46.0717L25.7027 45.6366L32.9242 50.0195L31.5234 52.3276L26.7194 49.412C28.0161 56.2054 32.0168 61.8501 38.9249 63.7011Z" fill="#5E7575"/>
<path fill-rule="evenodd" clip-rule="evenodd" d="M45.0001 35.4287L53.2893 40.2145V49.786L45.0001 54.5718L36.7109 49.786V40.2145L45.0001 35.4287ZM39.4109 43.3322L43.6501 45.7797V50.6747L39.4109 48.2272V43.3322ZM46.3501 50.6747L50.5893 48.2272V43.3322L46.3501 45.7797V50.6747ZM45.0001 43.4414L49.2393 40.9939L45.0001 38.5464L40.7609 40.9939L45.0001 43.4414Z" fill="#5E7575"/>
</svg>
