<svg width="26" height="26" viewBox="0 0 26 26" fill="none" xmlns="http://www.w3.org/2000/svg">
<path fill-rule="evenodd" clip-rule="evenodd" d="M5.16155 2.26953C3.92893 2.26953 2.92969 3.26877 2.92969 4.5014C2.92969 5.73402 3.92893 6.73326 5.16155 6.73326C6.39418 6.73326 7.39342 5.73402 7.39342 4.5014C7.39342 3.26877 6.39418 2.26953 5.16155 2.26953ZM1.42969 4.5014C1.42969 2.44034 3.1005 0.769531 5.16155 0.769531C7.2226 0.769531 8.89342 2.44034 8.89342 4.5014C8.89342 6.56245 7.2226 8.23326 5.16155 8.23326C3.1005 8.23326 1.42969 6.56245 1.42969 4.5014Z" fill="#DB0053"/>
<path fill-rule="evenodd" clip-rule="evenodd" d="M14.9414 11.1753C13.644 9.8693 11.9326 8.9601 9.31155 8.10587L9.77635 6.6797C12.5033 7.56845 14.4696 8.57202 16.0056 10.1181C17.2057 11.3262 18.104 12.8265 18.9173 14.7614L19.4837 13.4843L20.8549 14.0924L19.5554 17.0227L18.5944 17.4162L15.2494 16.0961L15.8 14.7008L17.5558 15.3937C16.7814 13.5405 15.972 12.2127 14.9414 11.1753Z" fill="#DB0053"/>
<path fill-rule="evenodd" clip-rule="evenodd" d="M21.7846 19.1826C20.552 19.1826 19.5527 20.1819 19.5527 21.4145C19.5527 22.6471 20.552 23.6463 21.7846 23.6463C23.0172 23.6463 24.0165 22.6471 24.0165 21.4145C24.0165 20.1819 23.0172 19.1826 21.7846 19.1826ZM18.0527 21.4145C18.0527 19.3534 19.7235 17.6826 21.7846 17.6826C23.8457 17.6826 25.5165 19.3534 25.5165 21.4145C25.5165 23.4755 23.8457 25.1463 21.7846 25.1463C19.7235 25.1463 18.0527 23.4755 18.0527 21.4145Z" fill="#DB0053"/>
</svg>
