<svg width="26" height="26" viewBox="0 0 26 26" fill="none" xmlns="http://www.w3.org/2000/svg">
<path fill-rule="evenodd" clip-rule="evenodd" d="M5.36134 2.5957C4.09388 2.5957 3.06641 3.62318 3.06641 4.89064C3.06641 6.1581 4.09388 7.18558 5.36134 7.18558C6.6288 7.18558 7.65628 6.1581 7.65628 4.89064C7.65628 3.62318 6.6288 2.5957 5.36134 2.5957ZM1.56641 4.89064C1.56641 2.79475 3.26546 1.0957 5.36134 1.0957C7.45723 1.0957 9.15628 2.79475 9.15628 4.89064C9.15628 6.72977 7.84801 8.26334 6.11134 8.61148V21.9811L7.18251 20.8711L8.26192 21.9127L5.90104 24.3593H4.82164L2.46077 21.9127L3.54017 20.8711L4.61134 21.9811V8.61148C2.87468 8.26334 1.56641 6.72977 1.56641 4.89064Z" fill="#DB0053"/>
<path fill-rule="evenodd" clip-rule="evenodd" d="M23.1021 12.2176L21.2148 14.0388L22.2564 15.1182L24.703 12.7573L24.703 11.6779L22.2564 9.31702L21.2148 10.3964L23.1021 12.2176Z" fill="#DB0053"/>
<path fill-rule="evenodd" clip-rule="evenodd" d="M14.8809 5.15723H8.4668V3.65723H14.8809C16.3997 3.65723 17.6309 4.88844 17.6309 6.40723V10.2175C17.6309 10.9079 18.1905 11.4675 18.8809 11.4675H23.4679V12.9675H18.8809C17.3621 12.9675 16.1309 11.7363 16.1309 10.2175V6.40723C16.1309 5.71687 15.5712 5.15723 14.8809 5.15723ZM16.1309 22.0444L16.1309 13.8954H17.6309L17.6309 22.0444L18.702 20.9343L19.7814 21.9759L17.4206 24.4225H16.3412L13.9803 21.9759L15.0597 20.9343L16.1309 22.0444Z" fill="#DB0053"/>
</svg>
