<svg width="26" height="26" viewBox="0 0 26 26" fill="none" xmlns="http://www.w3.org/2000/svg">
<path fill-rule="evenodd" clip-rule="evenodd" d="M4.39836 9.23438H10.4972L10.7526 9.89613C11.672 12.2791 12.1436 14.8114 12.1436 17.3657V23.6914H2.75224V22.1914H10.6436V17.3657C10.6436 15.1024 10.2445 12.8576 9.46537 10.7344H5.43021C4.65109 12.8576 4.25195 15.1024 4.25195 17.3657V20.3279H2.75195V17.3657C2.75195 14.8114 3.22355 12.2792 4.14302 9.89614L4.39836 9.23438Z" fill="#DB0053"/>
<path fill-rule="evenodd" clip-rule="evenodd" d="M16.5038 9.23438H22.6027L22.858 9.89614C23.7775 12.2791 24.2491 14.8114 24.2491 17.3657V23.6914H14.8574V17.3657C14.8574 14.8114 15.329 12.2791 16.2485 9.89614L16.5038 9.23438ZM17.5357 10.7344C16.7566 12.8576 16.3574 15.1024 16.3574 17.3657V22.1914H22.7491V17.3657C22.7491 15.1024 22.35 12.8576 21.5708 10.7344H17.5357Z" fill="#DB0053"/>
<path fill-rule="evenodd" clip-rule="evenodd" d="M5.78531 5.37011V6.65976H9.10806V5.37011H5.78531ZM10.6081 5.37012H11.4904V3.87012L3.42773 3.87012L3.42774 5.37012L4.28531 5.37012V8.15976H10.6081V5.37012Z" fill="#DB0053"/>
<path fill-rule="evenodd" clip-rule="evenodd" d="M17.8791 5.37011V6.65976H21.2018V5.37011H17.8791ZM22.7018 5.37012H23.5842V3.87012L15.5215 3.87012L15.5215 5.37012L16.3791 5.37012V8.15976H22.7018V5.37012Z" fill="#DB0053"/>
</svg>
