<svg width="28" height="28" viewBox="0 0 28 28" fill="none" xmlns="http://www.w3.org/2000/svg">
<path fill-rule="evenodd" clip-rule="evenodd" d="M14.4976 3.98191C12.5731 2.74238 10.1503 2.4059 7.93645 3.12019L14.4976 3.98191ZM14.4976 3.98191C16.358 2.7719 18.85 2.41271 21.0539 3.11993C25.661 4.60409 27.2015 9.57719 25.8645 13.7582C24.8973 16.8315 22.4153 19.5073 20.1228 21.4582C17.8109 23.4258 15.5902 24.7405 15.0113 25.0716C14.6927 25.2538 14.3126 25.2545 13.9932 25.0731C13.4155 24.7449 11.2089 23.446 8.90329 21.4853C6.61522 19.5395 4.1348 16.8631 3.13804 13.7608C1.79927 9.58106 3.32762 4.60515 7.93645 3.12019" fill="#DB0053"/>
</svg>
